<svg xmlns="http://www.w3.org/2000/svg" width="73.133" height="61.86" viewBox="0 0 73.133 61.86"><defs><style>.a{fill:#00c9ae;}</style></defs><path class="a" d="M207.851,125.327a26.822,26.822,0,0,0-13.861-7,1.206,1.206,0,0,0-.447,2.369c10.321,1.949,17.529,9.122,17.529,17.443,0,6.853-4.879,13.012-12.732,16.074a1.206,1.206,0,0,0-.754.94,13.259,13.259,0,0,0,1.763,8.866,10.559,10.559,0,0,1-7.374-7.2,1.205,1.205,0,0,0-1.258-.851c-.851.074-1.71.112-2.551.112-7.5,0-14.539-2.893-18.831-7.739a1.205,1.205,0,1,0-1.805,1.6c4.742,5.355,12.457,8.552,20.636,8.552.6,0,1.209-.018,1.818-.053a13.225,13.225,0,0,0,4.3,5.723,12.8,12.8,0,0,0,7.8,2.625,1.206,1.206,0,0,0,.856-2.054,10.8,10.8,0,0,1-3.055-8.546,24.183,24.183,0,0,0,9.579-7.034,17.535,17.535,0,0,0,4.016-11.015A18.1,18.1,0,0,0,207.851,125.327Z" transform="translate(-140.349 -104.925)"/><path class="a" d="M50.63,55.421c0-5.49-2.67-10.633-7.518-14.483a28.618,28.618,0,0,0-17.8-5.87,28.618,28.618,0,0,0-17.8,5.87C2.67,44.788,0,49.931,0,55.421A17.535,17.535,0,0,0,4.016,66.436a24.186,24.186,0,0,0,9.579,7.034,10.8,10.8,0,0,1-3.055,8.546,1.206,1.206,0,0,0,.856,2.054,12.8,12.8,0,0,0,7.8-2.625,13.224,13.224,0,0,0,4.3-5.723c.609.035,1.218.053,1.818.053a28.618,28.618,0,0,0,17.8-5.87C47.961,66.054,50.63,60.911,50.63,55.421ZM22.765,73.252a1.2,1.2,0,0,0-1.258.851,10.558,10.558,0,0,1-7.374,7.2A13.259,13.259,0,0,0,15.9,72.435a1.206,1.206,0,0,0-.754-.94C7.289,68.433,2.411,62.274,2.411,55.421c0-9.893,10.275-17.942,22.9-17.942s22.9,8.049,22.9,17.942-10.275,17.942-22.9,17.942C24.474,73.363,23.616,73.326,22.765,73.252Z" transform="translate(0 -35.068)"/></svg>