<svg xmlns="http://www.w3.org/2000/svg" width="61.889" height="61.882" viewBox="0 0 61.889 61.882"><defs><style>.a{fill:#00c9ae;}</style></defs><g transform="translate(0 -0.028)"><path class="a" d="M133.611,19.055h4.974v3.452h-1.859a1,1,0,1,0,0,2h13.935a1,1,0,1,0,0-2H148.8V19.055h4.974A3.558,3.558,0,0,0,157.33,15.5V3.582A3.558,3.558,0,0,0,153.776.028H133.611a3.558,3.558,0,0,0-3.554,3.554V15.5A3.558,3.558,0,0,0,133.611,19.055Zm13.194,3.452h-6.224V19.055h6.224ZM132.053,3.582a1.56,1.56,0,0,1,1.558-1.558h20.165a1.56,1.56,0,0,1,1.558,1.558V15.5a1.56,1.56,0,0,1-1.558,1.558H133.611a1.56,1.56,0,0,1-1.558-1.558Z" transform="translate(-112.749)"/><path class="a" d="M23.719,281.115H3.554A3.558,3.558,0,0,0,0,284.669v11.918a3.558,3.558,0,0,0,3.554,3.554H8.528v3.452H6.669a1,1,0,0,0,0,2H20.6a1,1,0,0,0,0-2H18.745v-3.452h4.974a3.558,3.558,0,0,0,3.554-3.554V284.669A3.558,3.558,0,0,0,23.719,281.115Zm-6.97,22.479H10.525v-3.452h6.224Zm8.528-7.006a1.56,1.56,0,0,1-1.558,1.558H3.554A1.56,1.56,0,0,1,2,296.587V284.669a1.56,1.56,0,0,1,1.558-1.558H23.719a1.56,1.56,0,0,1,1.558,1.558Z" transform="translate(0 -243.68)"/><path class="a" d="M283.833,281.115H263.668a3.558,3.558,0,0,0-3.554,3.554v11.918a3.558,3.558,0,0,0,3.554,3.554h4.974v3.452h-1.859a1,1,0,0,0,0,2h13.934a1,1,0,1,0,0-2h-1.859v-3.452h4.974a3.558,3.558,0,0,0,3.554-3.554V284.669A3.558,3.558,0,0,0,283.833,281.115Zm-6.97,22.479h-6.224v-3.452h6.224Zm8.529-7.006a1.56,1.56,0,0,1-1.558,1.558H263.668a1.56,1.56,0,0,1-1.558-1.558V284.669a1.56,1.56,0,0,1,1.558-1.558h20.165a1.56,1.56,0,0,1,1.558,1.558v11.918Z" transform="translate(-225.498 -243.68)"/><path class="a" d="M129.587,206.882a1,1,0,0,0,2,0v-3.472a1,1,0,0,0-1-1h-16.31v-2.474a1,1,0,0,0-2,0v2.474H95.969a1,1,0,0,0-1,1v3.472a1,1,0,1,0,2,0v-2.474h32.62Z" transform="translate(-82.332 -172.442)"/></g></svg>