<svg xmlns="http://www.w3.org/2000/svg" width="14.23" height="12.563" viewBox="0 0 14.23 12.563"><defs><style>.a{fill:#ff5a5f;}</style></defs><g transform="translate(0 -30)"><g transform="translate(0 30)"><path class="a" d="M10.45,30a3.369,3.369,0,0,0-2.1.727,4.793,4.793,0,0,0-1.231,1.481,4.793,4.793,0,0,0-1.231-1.481A3.369,3.369,0,0,0,3.78,30,3.863,3.863,0,0,0,0,34.1c0,2.525,2.027,4.253,5.1,6.868.521.444,1.112.948,1.726,1.485a.445.445,0,0,0,.585,0c.614-.537,1.2-1.04,1.726-1.485,3.069-2.615,5.1-4.343,5.1-6.868A3.863,3.863,0,0,0,10.45,30Z" transform="translate(0 -30)"/></g></g></svg>