<svg xmlns="http://www.w3.org/2000/svg" width="185.624" height="42" viewBox="0 0 185.624 42">
  <g id="Groupe_5" data-name="Groupe 5" transform="translate(-0.01 0.004)">
    <g id="Groupe_2" data-name="Groupe 2" transform="translate(47.602 0.002)">
      <g id="Groupe_1" data-name="Groupe 1">
        <path id="Tracé_1" data-name="Tracé 1" d="M56.344,15.363A12.176,12.176,0,0,1,59.5,24.039V41.2h-6.01V25.232a8.216,8.216,0,0,0-1.856-5.612A6.189,6.189,0,0,0,46.74,17.5a7.692,7.692,0,0,0-6.216,2.7c-1.5,1.8-2.254,4.419-2.254,7.9V41.2H32.32V0h5.951V16.306a12.177,12.177,0,0,1,9.839-4.286A10.821,10.821,0,0,1,56.344,15.363Z" transform="translate(-32.32)" fill="#062944"/>
        <path id="Tracé_2" data-name="Tracé 2" d="M56.74,37.084V8.7h5.951V37.084Z" transform="translate(-20.77 4.115)" fill="#062944"/>
        <path id="Tracé_3" data-name="Tracé 3" d="M93.345,16.247A14.692,14.692,0,0,1,97.529,27a14.68,14.68,0,0,1-4.154,10.782,14.417,14.417,0,0,1-20.224.147v3.255H67.2V0h5.951V16.085a14.362,14.362,0,0,1,20.194.162ZM89.1,34.07A9.605,9.605,0,0,0,91.74,27a9.652,9.652,0,0,0-2.637-7.07,8.913,8.913,0,0,0-6.643-2.666,9.152,9.152,0,0,0-6.525,2.71,9.332,9.332,0,0,0-2.8,7.011A9.332,9.332,0,0,0,75.935,34a9.092,9.092,0,0,0,6.525,2.71A8.78,8.78,0,0,0,89.1,34.07Z" transform="translate(-15.823)" fill="#062944"/>
        <path id="Tracé_4" data-name="Tracé 4" d="M114.677,12.424A14.057,14.057,0,0,1,119.052,23.1a14.137,14.137,0,0,1-4.4,10.709,15.077,15.077,0,0,1-10.753,4.183,15.238,15.238,0,0,1-10.841-4.183A14.033,14.033,0,0,1,88.62,23.1a13.969,13.969,0,0,1,4.434-10.679A15.276,15.276,0,0,1,103.895,8.27,15.062,15.062,0,0,1,114.677,12.424Zm-4.2,17.69a9.332,9.332,0,0,0,2.8-7.011,9.332,9.332,0,0,0-2.8-7.011,9.152,9.152,0,0,0-6.584-2.71,9.267,9.267,0,0,0-6.673,2.71A9.365,9.365,0,0,0,94.453,23.1a9.421,9.421,0,0,0,2.769,7.011,9.46,9.46,0,0,0,13.257,0Z" transform="translate(-5.692 3.912)" fill="#00c9ae"/>
        <path id="Tracé_5" data-name="Tracé 5" d="M131.427,12.424A14.057,14.057,0,0,1,135.8,23.1a14.137,14.137,0,0,1-4.4,10.709,15.077,15.077,0,0,1-10.753,4.183A15.238,15.238,0,0,1,109.8,33.811,14.033,14.033,0,0,1,105.37,23.1,13.969,13.969,0,0,1,109.8,12.424,15.276,15.276,0,0,1,120.645,8.27,15.111,15.111,0,0,1,131.427,12.424Zm-4.213,17.69a9.332,9.332,0,0,0,2.8-7.011,9.332,9.332,0,0,0-2.8-7.011,9.152,9.152,0,0,0-6.584-2.71,9.267,9.267,0,0,0-6.673,2.71,9.365,9.365,0,0,0-2.769,7.011,9.421,9.421,0,0,0,2.769,7.011,9.46,9.46,0,0,0,13.257,0Z" transform="translate(2.231 3.912)" fill="#00c9ae"/>
      </g>
      <path id="Tracé_6" data-name="Tracé 6" d="M96.345,18.184a1.774,1.774,0,0,1,1.915.088,1.737,1.737,0,0,1,.368,2.43,1.713,1.713,0,0,1-2.3.427,4.131,4.131,0,1,0,.53-3.918A4.41,4.41,0,0,0,96.345,18.184Z" transform="translate(-2.045 7.342)" fill="#062944"/>
      <path id="Tracé_7" data-name="Tracé 7" d="M113.1,18.214a1.736,1.736,0,1,1,0,2.961,4.125,4.125,0,1,0,.5-3.918A3.958,3.958,0,0,0,113.1,18.214Z" transform="translate(5.887 7.357)" fill="#062944"/>
      <path id="Tracé_8" data-name="Tracé 8" d="M62.705,1.48A3.6,3.6,0,0,1,63.8,4.117a3.518,3.518,0,0,1-1.061,2.637,3.7,3.7,0,0,1-2.71,1.031A3.852,3.852,0,0,1,57.27,6.753a3.487,3.487,0,0,1-1.09-2.637A3.627,3.627,0,0,1,57.27,1.48,3.729,3.729,0,0,1,60.024.39,3.6,3.6,0,0,1,62.705,1.48Z" transform="translate(-21.035 0.184)" fill="#00c9ae"/>
      <path id="Tracé_9" data-name="Tracé 9" d="M113.98,23.924,108.958,30.6,103.92,23.88Z" transform="translate(1.545 11.295)" fill="#00c9ae"/>
    </g>
    <g id="Groupe_4" data-name="Groupe 4" transform="translate(0.01 -0.004)">
      <g id="Groupe_3" data-name="Groupe 3" transform="translate(0.795)">
        <path id="Tracé_10" data-name="Tracé 10" d="M9.52,8.722a10.919,10.919,0,0,1,8.617,4.154,10.457,10.457,0,0,1,1.3,2.224,10.8,10.8,0,0,1,9.928-6.378,10.919,10.919,0,0,1,8.617,4.154,11.717,11.717,0,0,1,.81,1.223A20.166,20.166,0,0,0,.55,13.421,10.857,10.857,0,0,1,9.52,8.722Z" transform="translate(-0.55 0.004)" fill="#062944"/>
      </g>
      <path id="Tracé_11" data-name="Tracé 11" d="M25.318,15.759a1.739,1.739,0,0,1-2.357-2.46,1.7,1.7,0,0,1,2.283-.486,4.133,4.133,0,1,0-.427,3.933A3.672,3.672,0,0,0,25.318,15.759Z" transform="translate(8.163 4.853)" fill="#00c9ae"/>
      <path id="Tracé_12" data-name="Tracé 12" d="M11.827,15.822a1.728,1.728,0,0,1-2.313-2.475,1.721,1.721,0,0,1,2.3-.471,4.075,4.075,0,0,0-1.458-1.871,4.132,4.132,0,1,0,.987,5.759A3.585,3.585,0,0,0,11.827,15.822Z" transform="translate(1.799 4.849)" fill="#00c9ae"/>
      <path id="Tracé_13" data-name="Tracé 13" d="M39.338,16.313a10.927,10.927,0,0,1-16.983,3.344L19.9,23.929a.345.345,0,0,1-.589,0L16.89,19.76a10.936,10.936,0,0,1-7.114,2.607A10.8,10.8,0,0,1,.01,16.284a19.789,19.789,0,0,0,2.622,6.923c.074.118.162.25.236.383a3.108,3.108,0,0,1,.354,1.473L1.159,32.015a1.6,1.6,0,0,0-.059.324.9.9,0,0,0,.869.972,1.742,1.742,0,0,0,.457-.1l6.614-2.254a2.841,2.841,0,0,1,1.178-.206,3,3,0,0,1,1.075.236c.339.147,1.62.663,2.916,1.061a22.68,22.68,0,0,0,5.435,1.046A19.924,19.924,0,0,0,39.736,15.4C39.6,15.709,39.471,16.019,39.338,16.313Z" transform="translate(-0.01 7.289)" fill="#062944"/>
    </g>
  </g>
</svg>
