<svg xmlns="http://www.w3.org/2000/svg" width="763.101" height="779.9" viewBox="0 0 763.101 779.9">
  <g id="Groupe_52" data-name="Groupe 52" transform="translate(-0.01 0.004)">
    <g id="Groupe_51" data-name="Groupe 51" transform="translate(15.289 -0.004)">
      <path id="Tracé_113" data-name="Tracé 113" d="M172.863,167.6c67.624,0,127.608,31.407,165.523,79.79,10.186,13.015,18.108,27.446,24.9,42.725C394.692,218.252,468.257,167.6,553.989,167.6c67.624,0,127.608,31.407,165.522,79.79a225.088,225.088,0,0,1,15.562,23.484C686.69,117.523,544.935,4.346,374.6.1,202.572-3.86,54.309,104.508.55,257.864A208.544,208.544,0,0,1,172.863,167.6Z" transform="translate(-0.55 0.004)" fill="#f7f8f9"/>
    </g>
    <path id="Tracé_114" data-name="Tracé 114" d="M171.5,116.081a33.443,33.443,0,0,1-36.783-.849c-15-10.469-18.957-31.407-8.488-46.4a32.727,32.727,0,0,1,43.856-9.337A79.428,79.428,0,1,0,51.253,154.845c35.934,25.182,85.449,16.128,110.631-19.806A70.529,70.529,0,0,0,171.5,116.081Z" transform="translate(471.638 279.859)" fill="#f7f8f9"/>
    <path id="Tracé_115" data-name="Tracé 115" d="M157.368,117.451c-11.035,6.508-25.465,6.791-36.5-1.132a33.136,33.136,0,0,1,36.217-55.457,78.276,78.276,0,0,0-28.011-35.934C93.423-.537,43.907,7.951,18.442,43.885A79.311,79.311,0,0,0,37.4,154.517c35.934,25.182,85.449,16.694,110.631-18.957A68.871,68.871,0,0,0,157.368,117.451Z" transform="translate(104.365 279.621)" fill="#f7f8f9"/>
    <path id="Tracé_116" data-name="Tracé 116" d="M755.471,32.943C722.65,101.7,650.782,149.233,567.6,149.233a209.193,209.193,0,0,1-138.36-52.062l-47.252,82.054a6.622,6.622,0,0,1-11.318,0l-46.4-80.073A210.061,210.061,0,0,1,187.6,149.233c-83.186,0-154.771-48.1-187.592-116.856A380.129,380.129,0,0,0,50.374,165.361c1.415,2.264,3.112,4.81,4.527,7.357a59.7,59.7,0,0,1,6.791,28.294L22.08,334.561a30.742,30.742,0,0,0-1.132,6.225A17.218,17.218,0,0,0,37.642,359.46c3.4,0,8.771-1.981,8.771-1.981l127.042-43.29a54.572,54.572,0,0,1,22.636-3.961,57.624,57.624,0,0,1,20.655,4.527c6.508,2.829,31.124,12.733,56.023,20.372s70.453,19.523,104.406,20.089c199.759,4.81,361.32-146.282,385.936-339.816C760.564,21.342,758.018,27.284,755.471,32.943Z" transform="translate(0 420.436)" fill="#f7f8f9"/>
  </g>
</svg>
