<?xml version="1.0" encoding="UTF-8"?>
<svg xmlns="http://www.w3.org/2000/svg" xmlns:xlink="http://www.w3.org/1999/xlink" width="400pt" height="283pt" viewBox="0 0 400 283" version="1.1">
<defs>
<filter id="alpha" filterUnits="objectBoundingBox" x="0%" y="0%" width="100%" height="100%">
  <feColorMatrix type="matrix" in="SourceGraphic" values="0 0 0 0 1 0 0 0 0 1 0 0 0 0 1 0 0 0 1 0"/>
</filter>
<mask id="mask0">
  <g filter="url(#alpha)">
<rect x="0" y="0" width="400" height="283" style="fill:rgb(0%,0%,0%);fill-opacity:0.54902;stroke:none;"/>
  </g>
</mask>
<clipPath id="clip1">
  <rect x="0" y="0" width="400" height="283"/>
</clipPath>
<g id="surface5" clip-path="url(#clip1)">
<path style=" stroke:none;fill-rule:nonzero;fill:rgb(83.137255%,83.137255%,83.137255%);fill-opacity:1;" d="M 175.214844 184.007812 C 175.214844 184.007812 160.53125 187.929688 154.730469 196.179688 L 46.625 196.179688 C 46.625 196.179688 42.679688 184.625 28.917969 184.769531 L 28.917969 204.933594 L 176.761719 204.933594 Z M 175.214844 184.007812 "/>
</g>
<mask id="mask1">
  <g filter="url(#alpha)">
<rect x="0" y="0" width="400" height="283" style="fill:rgb(0%,0%,0%);fill-opacity:0.141176;stroke:none;"/>
  </g>
</mask>
<clipPath id="clip2">
  <rect x="0" y="0" width="400" height="283"/>
</clipPath>
<g id="surface8" clip-path="url(#clip2)">
<path style=" stroke:none;fill-rule:nonzero;fill:rgb(7.45098%,16.862745%,20.784314%);fill-opacity:1;" d="M 84.445312 205.015625 C 84.445312 205.015625 84.765625 209.523438 91.824219 214.972656 C 94.5 217.023438 95.816406 220.390625 95.238281 223.714844 C 94.375 228.082031 93.28125 232.402344 91.964844 236.65625 L 96.070312 236.96875 L 103.515625 219.390625 L 98.671875 208.769531 L 90.300781 203.09375 Z M 84.445312 205.015625 "/>
</g>
</defs>
<g id="surface1">
<path style=" stroke:none;fill-rule:nonzero;fill:rgb(96.862745%,97.254902%,97.647059%);fill-opacity:1;" d="M 100.445312 270.4375 C 128.484375 267.769531 155.335938 257.792969 178.328125 241.5 C 191.660156 232.015625 203.714844 220.226562 211.234375 205.675781 C 213.664062 200.976562 215.621094 195.894531 215.769531 190.597656 C 215.925781 185.03125 214.070312 179.597656 211.625 174.605469 C 206.757812 164.679688 199.570312 156.074219 190.671875 149.523438 C 179.160156 141.058594 165.34375 136.425781 152.777344 129.617188 C 142.273438 123.929688 132.667969 116.726562 123.339844 109.273438 C 116.097656 103.488281 108.714844 97.367188 99.785156 94.882812 C 91.050781 92.441406 81.550781 93.789062 73.195312 97.3125 C 67.242188 99.828125 61.789062 103.390625 57.089844 107.832031 C 51.734375 112.90625 47.480469 119.019531 43.394531 125.171875 C 35.222656 137.488281 27.585938 150.140625 20.476562 163.128906 C 10.019531 182.253906 0.585938 202.773438 0.0234375 224.570312 C -0.542969 246.363281 9.789062 269.722656 29.644531 278.660156 C 39.710938 283.191406 51.214844 283.667969 62.121094 281.949219 C 73.023438 280.230469 83.46875 276.421875 93.835938 272.644531 Z M 100.445312 270.4375 "/>
<path style=" stroke:none;fill-rule:nonzero;fill:rgb(50.196078%,35.294118%,25.098039%);fill-opacity:1;" d="M 37.546875 239.066406 L 36.855469 240.808594 L 35.066406 245.347656 L 31.253906 254.992188 L 27.289062 254.992188 L 27.996094 245.347656 L 28.328125 240.808594 L 28.453125 239.066406 Z M 37.546875 239.066406 "/>
<path style=" stroke:none;fill-rule:nonzero;fill:rgb(50.196078%,35.294118%,25.098039%);fill-opacity:1;" d="M 173.222656 254.992188 L 169.257812 254.992188 L 165.449219 245.347656 L 163.65625 240.808594 L 162.964844 239.066406 L 172.050781 239.066406 L 172.175781 240.808594 L 172.511719 245.347656 Z M 173.222656 254.992188 "/>
<path style=" stroke:none;fill-rule:nonzero;fill:rgb(62.352941%,74.117647%,97.647059%);fill-opacity:1;" d="M 25.367188 202.703125 L 29.300781 169.226562 C 30.386719 161.476562 37.964844 155.644531 46.949219 155.644531 L 152.796875 155.644531 C 161.457031 155.644531 168.855469 161.070312 170.320312 168.484375 L 176.035156 202.703125 Z M 25.367188 202.703125 "/>
<use xlink:href="#surface5" mask="url(#mask0)"/>
<path style=" stroke:none;fill-rule:nonzero;fill:rgb(52.156863%,41.176471%,38.039216%);fill-opacity:1;" d="M 24.132812 232.515625 L 176.765625 232.515625 L 176.765625 240.808594 L 24.132812 240.808594 Z M 24.132812 232.515625 "/>
<path style=" stroke:none;fill-rule:nonzero;fill:rgb(62.352941%,74.117647%,97.647059%);fill-opacity:1;" d="M 189.558594 181.054688 L 185.347656 181.054688 C 177.804688 181.035156 170.707031 184.621094 166.242188 190.710938 C 163.070312 195.085938 161.503906 200.722656 161.503906 200.722656 L 105.207031 202.011719 L 40 200.722656 C 40 200.722656 38.429688 195.078125 35.257812 190.710938 C 30.800781 184.617188 23.699219 181.027344 16.15625 181.054688 L 11.945312 181.054688 C 3.929688 181.054688 0.273438 188.464844 1.996094 196.304688 C 4.117188 205.898438 6.742188 218.390625 14.015625 228.734375 C 17.527344 233.644531 23.207031 236.539062 29.238281 236.492188 L 172.257812 236.492188 C 178.289062 236.53125 183.964844 233.640625 187.480469 228.734375 C 194.753906 218.390625 197.382812 205.898438 199.5 196.304688 C 201.226562 188.464844 197.570312 181.054688 189.558594 181.054688 Z M 189.558594 181.054688 "/>
<path style=" stroke:none;fill-rule:nonzero;fill:rgb(53.333333%,66.666667%,88.627451%);fill-opacity:1;" d="M 167.644531 219.402344 L 33.847656 219.402344 C 31.417969 219.402344 29.449219 217.429688 29.449219 214.996094 C 29.449219 207.292969 35.683594 201.050781 43.378906 201.050781 L 159.550781 201.050781 C 166.457031 201.050781 172.058594 206.660156 172.058594 213.578125 L 172.058594 214.996094 C 172.046875 217.429688 170.074219 219.398438 167.644531 219.402344 Z M 167.644531 219.402344 "/>
<path style=" stroke:none;fill-rule:nonzero;fill:rgb(71.372549%,81.960784%,98.823529%);fill-opacity:1;" d="M 100.609375 216.847656 L 33.289062 216.847656 C 31.171875 216.847656 29.453125 215.128906 29.449219 213.003906 C 29.449219 206.210938 34.949219 200.707031 41.730469 200.707031 L 100.609375 200.707031 C 102.730469 200.707031 104.449219 202.429688 104.449219 204.554688 L 104.449219 212.996094 C 104.453125 215.121094 102.734375 216.847656 100.609375 216.847656 Z M 100.609375 216.847656 "/>
<path style=" stroke:none;fill-rule:nonzero;fill:rgb(71.372549%,81.960784%,98.823529%);fill-opacity:1;" d="M 168.203125 216.847656 L 109.796875 216.847656 C 107.675781 216.847656 105.957031 215.128906 105.957031 213.003906 L 105.957031 204.5625 C 105.957031 202.4375 107.675781 200.714844 109.796875 200.714844 L 159.765625 200.714844 C 166.546875 200.714844 172.042969 206.21875 172.042969 213.011719 C 172.039062 215.132812 170.320312 216.851562 168.203125 216.847656 Z M 168.203125 216.847656 "/>
<path style=" stroke:none;fill-rule:nonzero;fill:rgb(98.431373%,100%,97.647059%);fill-opacity:1;" d="M 61.96875 200.878906 L 42.738281 202.367188 C 40.585938 202.53125 38.710938 200.921875 38.542969 198.765625 L 37.375 183.671875 C 37.210938 181.519531 38.820312 179.636719 40.972656 179.472656 L 60.203125 177.984375 C 62.355469 177.816406 64.230469 179.429688 64.398438 181.582031 L 65.566406 196.675781 C 65.644531 197.710938 65.3125 198.734375 64.636719 199.523438 C 63.964844 200.3125 63.003906 200.800781 61.96875 200.878906 Z M 61.96875 200.878906 "/>
<path style=" stroke:none;fill-rule:nonzero;fill:rgb(0%,87.843137%,58.039216%);fill-opacity:1;" d="M 85.648438 206.964844 L 66.367188 206.964844 C 64.210938 206.964844 62.460938 205.210938 62.460938 203.050781 L 62.460938 187.914062 C 62.460938 185.753906 64.210938 184 66.367188 184 L 85.648438 184 C 87.808594 184 89.554688 185.753906 89.558594 187.914062 L 89.558594 203.050781 C 89.554688 205.210938 87.808594 206.964844 85.648438 206.964844 Z M 85.648438 206.964844 "/>
<path style=" stroke:none;fill-rule:nonzero;fill:rgb(0%,78.823529%,68.235294%);fill-opacity:1;" d="M 145.941406 205.015625 L 126.660156 205.015625 C 124.5 205.015625 122.753906 203.261719 122.753906 201.101562 L 122.753906 185.964844 C 122.753906 183.804688 124.5 182.050781 126.660156 182.050781 L 145.941406 182.050781 C 148.097656 182.050781 149.847656 183.804688 149.847656 185.964844 L 149.847656 201.101562 C 149.847656 203.261719 148.097656 205.015625 145.941406 205.015625 Z M 145.941406 205.015625 "/>
<use xlink:href="#surface8" mask="url(#mask1)"/>
<path style=" stroke:none;fill-rule:nonzero;fill:rgb(62.745098%,21.568627%,24.705882%);fill-opacity:1;" d="M 118.140625 194.324219 L 123.511719 196.230469 L 128.441406 184.582031 C 128.589844 184.238281 128.628906 183.882812 128.523438 183.84375 L 123.480469 182.050781 C 123.40625 182.023438 123.273438 182.183594 123.160156 182.445312 Z M 118.140625 194.324219 "/>
<path style=" stroke:none;fill-rule:nonzero;fill:rgb(100%,35.294118%,37.254902%);fill-opacity:1;" d="M 118.988281 194.628906 L 124.355469 196.535156 L 129.289062 184.886719 C 129.4375 184.542969 129.472656 184.1875 129.371094 184.148438 L 124.328125 182.355469 C 124.253906 182.328125 124.117188 182.492188 124.007812 182.75 Z M 118.988281 194.628906 "/>
<path style=" stroke:none;fill-rule:nonzero;fill:rgb(62.745098%,21.568627%,24.705882%);fill-opacity:1;" d="M 125.449219 187.121094 C 124.664062 186.84375 123.851562 187.121094 123.628906 187.746094 C 123.410156 188.367188 123.867188 189.097656 124.652344 189.378906 C 125.4375 189.65625 126.25 189.375 126.472656 188.753906 C 126.691406 188.128906 126.234375 187.398438 125.449219 187.121094 Z M 125.449219 187.121094 "/>
<path style=" stroke:none;fill-rule:nonzero;fill:rgb(1.960784%,11.372549%,17.647059%);fill-opacity:1;" d="M 93.316406 252.351562 C 92.742188 251.714844 91.859375 251.457031 91.035156 251.683594 C 90.382812 251.871094 89.875 252.386719 89.699219 253.042969 C 89.335938 254.367188 89.90625 256.453125 90.246094 258.757812 C 90.546875 260.785156 91.519531 264.117188 93.234375 264.171875 C 94.949219 264.230469 94.117188 257.558594 94.214844 254.5625 "/>
<path style=" stroke:none;fill-rule:nonzero;fill:rgb(1.960784%,11.372549%,17.647059%);fill-opacity:1;" d="M 105.125 239.804688 C 104.554688 239.167969 103.671875 238.90625 102.847656 239.136719 C 102.191406 239.320312 101.683594 239.839844 101.507812 240.496094 C 101.144531 241.820312 102.503906 243.523438 102.222656 245.992188 C 101.992188 248.039062 103.320312 251.558594 105.042969 251.625 C 106.769531 251.6875 106.546875 244.839844 106.640625 241.84375 "/>
<path style=" stroke:none;fill-rule:nonzero;fill:rgb(100%,81.960784%,67.058824%);fill-opacity:1;" d="M 106.054688 223.550781 C 106.054688 223.550781 105.371094 229.167969 104.636719 234.804688 C 104.546875 235.476562 104.441406 236.582031 104.324219 237.765625 C 104.273438 238.398438 104.039062 239 103.648438 239.5 C 103.464844 239.738281 103.136719 239.761719 102.957031 240.222656 C 102.550781 241.308594 103.394531 243.292969 103.640625 244.667969 C 104.019531 246.632812 104.703125 247.347656 105.296875 247.347656 C 106.308594 247.347656 106.417969 243.546875 106.5 242.734375 C 106.722656 240.421875 112.441406 229.808594 115.457031 222.710938 Z M 106.054688 223.550781 "/>
<path style=" stroke:none;fill-rule:nonzero;fill:rgb(100%,81.960784%,67.058824%);fill-opacity:1;" d="M 94.246094 236.101562 C 94.246094 236.101562 93.5625 241.71875 92.824219 247.355469 C 92.734375 248.023438 92.632812 249.132812 92.515625 250.316406 C 92.460938 250.945312 92.226562 251.550781 91.839844 252.046875 C 91.652344 252.285156 91.324219 252.308594 91.148438 252.769531 C 90.738281 253.855469 91.191406 255.917969 91.4375 257.292969 C 91.816406 259.257812 92.789062 260.34375 93.375 260.34375 C 94.007812 260.34375 93.949219 258.886719 94.117188 257.34375 C 94.183594 256.558594 94.347656 255.78125 94.609375 255.039062 C 95.328125 252.828125 100.625 242.355469 103.640625 235.261719 Z M 94.246094 236.101562 "/>
<path style=" stroke:none;fill-rule:nonzero;fill:rgb(2.352941%,16.078431%,26.666667%);fill-opacity:1;" d="M 122.320312 203.804688 C 121.460938 201.414062 116.179688 196.847656 113.363281 194.535156 C 112.078125 193.472656 111.160156 192.035156 110.734375 190.421875 C 110.449219 189.457031 110.285156 188.460938 110.242188 187.453125 C 110.238281 185.320312 90.597656 187.453125 90.597656 187.453125 L 87.988281 188.035156 C 87.796875 189.546875 87.449219 191.035156 86.949219 192.476562 C 86.824219 192.832031 86.683594 193.195312 86.519531 193.546875 C 86.34375 193.875 83.949219 198.976562 84.269531 203.878906 C 84.597656 208.847656 89.601562 210.789062 91.816406 212.609375 C 94.03125 214.433594 99.027344 215.871094 96.339844 225.019531 C 94.816406 230.203125 93.726562 236.660156 93.726562 236.660156 C 93.726562 236.660156 95.410156 236.53125 104.582031 239.023438 C 109.582031 240.386719 113.429688 236.683594 119.75 237.835938 C 117.777344 227.515625 124.570312 209.996094 122.320312 203.804688 Z M 122.320312 203.804688 "/>
<path style=" stroke:none;fill-rule:nonzero;fill:rgb(1.960784%,11.372549%,17.647059%);fill-opacity:1;" d="M 102.09375 200.246094 C 104.660156 202.082031 106.875 204.367188 108.632812 206.992188 C 109.554688 208.332031 110.101562 209.894531 110.222656 211.515625 C 110.253906 213.109375 110.109375 214.699219 109.796875 216.261719 C 109.210938 219.363281 108.351562 222.375 107.480469 225.382812 L 106.152344 229.875 C 105.699219 231.371094 105.289062 232.871094 104.910156 234.398438 C 105.40625 231.304688 106.066406 228.238281 106.894531 225.21875 C 107.671875 222.191406 108.484375 219.171875 109.054688 216.121094 C 109.382812 214.617188 109.542969 213.085938 109.539062 211.546875 C 109.429688 210.03125 108.957031 208.566406 108.15625 207.277344 C 107.367188 205.945312 106.445312 204.695312 105.402344 203.550781 C 104.367188 202.382812 103.265625 201.28125 102.09375 200.246094 Z M 102.09375 200.246094 "/>
<path style=" stroke:none;fill-rule:nonzero;fill:rgb(95.686275%,76.470588%,68.235294%);fill-opacity:1;" d="M 125.320312 152.375 C 125.085938 152.125 124.914062 151.824219 124.824219 151.496094 C 124.769531 151.09375 125 150.871094 125.164062 150.898438 C 125.328125 150.929688 125.789062 151.523438 126.042969 151.800781 C 126.292969 152.074219 126.671875 152.566406 126.671875 152.566406 "/>
<path style=" stroke:none;fill-rule:nonzero;fill:rgb(100%,81.960784%,67.058824%);fill-opacity:1;" d="M 123.777344 157.757812 C 123.777344 157.757812 124.246094 156.894531 124.3125 156.671875 C 124.378906 156.449219 124.097656 156.425781 124.238281 155.726562 C 124.238281 155.726562 123.71875 153.160156 124.28125 152.558594 C 124.847656 151.957031 126.480469 151.800781 126.941406 152.371094 C 127.433594 152.515625 127.816406 153.742188 128.011719 154.699219 C 128.203125 155.660156 127.371094 156.878906 127.179688 157.257812 C 126.988281 157.640625 126.542969 158.695312 126.542969 158.695312 "/>
<path style=" stroke:none;fill-rule:nonzero;fill:rgb(0%,78.823529%,68.235294%);fill-opacity:1;" d="M 122.828125 173.261719 C 121.820312 174.4375 121.257812 175.929688 121.238281 177.476562 C 120.605469 177.976562 119.816406 178.25 119.195312 177.917969 C 118.839844 177.707031 118.511719 177.464844 118.207031 177.1875 C 117.0625 176.015625 115.992188 174.777344 115 173.476562 C 114.886719 173.320312 114.820312 173.230469 114.820312 173.230469 C 111.859375 169.429688 109.625 165.105469 108.238281 160.488281 C 107.519531 157.90625 107.792969 154.871094 110.207031 153.570312 C 111.664062 154.066406 112.855469 155.132812 113.519531 156.523438 C 114.539062 158.441406 116.582031 162.601562 118.511719 166.304688 C 120.40625 169.882812 122.171875 173.03125 122.828125 173.261719 Z M 122.828125 173.261719 "/>
<path style=" stroke:none;fill-rule:nonzero;fill:rgb(0%,78.823529%,68.235294%);fill-opacity:1;" d="M 108.996094 151.769531 C 111.253906 152.292969 113.167969 153.78125 114.238281 155.839844 C 114.507812 156.375 114.746094 156.921875 114.953125 157.484375 C 115.886719 159.863281 116.988281 162.765625 117.914062 165.144531 C 116.636719 166.179688 115.277344 165.910156 113.980469 166.394531 C 112.753906 166.847656 111.441406 167.023438 110.140625 166.90625 C 109.917969 166.894531 109.699219 166.847656 109.492188 166.765625 C 109.230469 166.617188 109.003906 166.421875 108.816406 166.183594 C 108.417969 165.722656 108.03125 165.253906 107.652344 164.78125 C 107.300781 164.390625 107.03125 163.929688 106.863281 163.433594 C 106.738281 162.730469 106.804688 162.007812 107.050781 161.335938 "/>
<path style=" stroke:none;fill-rule:nonzero;fill:rgb(3.529412%,20%,30.980392%);fill-opacity:1;" d="M 110.074219 133.769531 C 111.105469 136.914062 110.320312 141.042969 111.914062 143.773438 C 112.554688 144.867188 113.636719 145.722656 113.941406 146.949219 C 114.207031 148.011719 113.820312 149.128906 112.960938 149.804688 C 112.101562 150.480469 110.925781 150.585938 109.960938 150.074219 C 109.765625 149.953125 109.558594 149.851562 109.34375 149.769531 C 108.554688 149.539062 107.84375 150.238281 107.160156 150.707031 C 106.332031 151.308594 105.273438 151.496094 104.285156 151.210938 C 103.0625 150.804688 102.304688 149.5625 101.898438 148.332031 C 100.753906 144.898438 101.5625 141.140625 102.625 137.671875 C 103.152344 135.941406 103.933594 134.019531 105.625 133.398438 "/>
<path style=" stroke:none;fill-rule:nonzero;fill:rgb(0%,78.823529%,68.235294%);fill-opacity:1;" d="M 126.941406 158.5625 C 124.898438 165.339844 123.167969 174.464844 122.074219 176.503906 C 121.863281 176.878906 121.578125 177.207031 121.238281 177.46875 C 120.605469 177.96875 119.816406 178.242188 119.195312 177.910156 C 118.839844 177.703125 118.507812 177.457031 118.207031 177.179688 C 117.027344 176.042969 115.953125 174.800781 114.996094 173.46875 C 114.886719 173.3125 114.820312 173.222656 114.820312 173.222656 C 115.910156 170.84375 117.144531 168.53125 118.511719 166.296875 C 120.628906 162.699219 122.9375 159 123.816406 157.246094 Z M 126.941406 158.5625 "/>
<path style=" stroke:none;fill-rule:nonzero;fill:rgb(100%,81.960784%,67.058824%);fill-opacity:1;" d="M 105.988281 157.265625 L 97.320312 155.957031 L 91.363281 152.632812 C 91.363281 152.632812 97.558594 150.582031 97.609375 149.964844 C 97.660156 149.34375 97.394531 143.058594 97.394531 143.058594 L 100.648438 145.035156 L 103.503906 146.777344 C 103.503906 146.777344 103.488281 147.425781 103.519531 148.144531 C 103.554688 149.023438 103.652344 150.011719 103.921875 150.125 C 104.574219 150.390625 105.253906 150.601562 105.945312 150.746094 Z M 105.988281 157.265625 "/>
<path style=" stroke:none;fill-rule:nonzero;fill:rgb(95.686275%,75.294118%,60.392157%);fill-opacity:1;" d="M 103.523438 148.148438 C 100.832031 146.890625 100.058594 144.914062 100.058594 144.914062 L 100.648438 145.039062 L 103.507812 146.777344 C 103.507812 146.777344 103.5 147.425781 103.523438 148.148438 Z M 103.523438 148.148438 "/>
<path style=" stroke:none;fill-rule:nonzero;fill:rgb(76.470588%,94.117647%,98.823529%);fill-opacity:1;" d="M 125.910156 152.625 C 125.765625 152.214844 125.453125 151.882812 125.046875 151.71875 C 124.671875 151.585938 124.269531 151.5625 123.882812 151.652344 L 124 150.757812 L 116.632812 150.757812 L 117.507812 157.511719 C 117.546875 157.789062 117.695312 158.042969 117.917969 158.210938 C 118.023438 158.292969 118.144531 158.351562 118.273438 158.382812 C 118.359375 158.40625 118.445312 158.417969 118.535156 158.421875 L 122.09375 158.421875 C 122.3125 158.421875 122.53125 158.351562 122.707031 158.21875 C 122.707031 158.214844 122.710938 158.210938 122.714844 158.210938 L 122.722656 158.207031 C 122.945312 158.039062 123.089844 157.789062 123.125 157.511719 L 123.226562 156.738281 C 123.570312 156.554688 123.898438 156.347656 124.214844 156.121094 C 125.359375 155.257812 126.53125 154.210938 125.910156 152.625 Z M 123.894531 155.699219 C 123.707031 155.839844 123.507812 155.96875 123.300781 156.085938 L 123.808594 152.203125 C 124.148438 152.09375 124.515625 152.09375 124.855469 152.210938 C 125.121094 152.320312 125.328125 152.542969 125.417969 152.820312 C 125.863281 153.941406 125.199219 154.722656 123.894531 155.699219 Z M 123.894531 155.699219 "/>
<path style=" stroke:none;fill-rule:nonzero;fill:rgb(67.843137%,91.372549%,96.862745%);fill-opacity:1;" d="M 124 150.765625 L 123.882812 151.65625 L 123.808594 152.207031 L 123.308594 156.082031 L 123.226562 156.730469 L 123.125 157.503906 C 123.085938 157.777344 122.941406 158.027344 122.722656 158.195312 L 122.707031 158.210938 C 122.53125 158.34375 122.3125 158.414062 122.089844 158.410156 L 118.53125 158.410156 C 118.445312 158.410156 118.359375 158.398438 118.273438 158.375 C 118.859375 158.128906 122.367188 156.433594 122.523438 150.757812 L 124 150.757812 Z M 124 150.765625 "/>
<path style=" stroke:none;fill-rule:nonzero;fill:rgb(100%,81.960784%,67.058824%);fill-opacity:1;" d="M 125.910156 152.015625 C 125.910156 152.015625 124.195312 151.769531 123.933594 152.203125 C 123.675781 152.632812 123.683594 152.90625 123.785156 153.058594 C 123.890625 153.207031 123.636719 153.480469 123.609375 153.769531 C 123.589844 153.9375 123.65625 154.105469 123.785156 154.210938 C 123.71875 154.363281 123.671875 154.523438 123.644531 154.6875 C 123.570312 154.984375 123.824219 155.066406 123.875 155.199219 C 123.925781 155.332031 123.792969 155.585938 123.914062 155.773438 C 124.03125 155.957031 124.328125 156.03125 124.980469 156.121094 C 125.722656 156.152344 126.453125 155.933594 127.054688 155.496094 "/>
<path style=" stroke:none;fill-rule:nonzero;fill:rgb(0%,78.823529%,68.235294%);fill-opacity:1;" d="M 110.6875 174.71875 C 110.25 177.257812 110.003906 179.824219 109.960938 182.402344 C 110.007812 184.125 110.019531 185.851562 110.625 187.222656 C 111.238281 188.621094 110.445312 188.566406 110.199219 188.621094 C 102.851562 190.125 95.257812 189.921875 87.996094 188.03125 C 87.34375 187.816406 88.242188 186.582031 88.339844 185.785156 C 88.964844 180.488281 88.734375 172.878906 87.449219 160.347656 C 86.972656 155.683594 88.257812 154.449219 88.5625 154.078125 C 89.253906 153.296875 90.105469 152.679688 91.054688 152.261719 C 93.089844 151.234375 96.746094 150.550781 96.746094 150.550781 C 96.746094 150.550781 98.632812 156.144531 103.550781 156.820312 C 106.234375 155.714844 105.992188 152.320312 105.957031 150.765625 C 106.835938 151.003906 107.222656 151.25 109.945312 152.054688 C 110.703125 153.152344 110.042969 155.445312 111.285156 158.867188 C 112.03125 161.011719 112.425781 163.257812 112.457031 165.527344 C 112.503906 166.6875 112.402344 167.847656 112.144531 168.980469 C 111.632812 170.828125 111.066406 172.753906 110.6875 174.71875 Z M 110.6875 174.71875 "/>
<path style=" stroke:none;fill-rule:nonzero;fill:rgb(100%,81.960784%,67.058824%);fill-opacity:1;" d="M 109.785156 133.933594 C 109.785156 133.933594 110.230469 142.539062 107.679688 146.800781 C 106.410156 148.929688 102.226562 147.546875 99.496094 144.878906 C 92.246094 144.878906 94.140625 137.871094 94.175781 137.394531 C 94.214844 136.917969 104.875 132.773438 104.875 132.773438 Z M 109.785156 133.933594 "/>
<path style=" stroke:none;fill-rule:nonzero;fill:rgb(2.352941%,16.078431%,26.666667%);fill-opacity:1;" d="M 111.773438 132.175781 C 111.671875 133.121094 111.261719 134.246094 110.460938 134.691406 C 110.113281 134.867188 109.730469 134.949219 109.34375 134.9375 C 108.113281 134.960938 107.09375 134.164062 105.898438 134.289062 C 105.304688 134.359375 104.757812 134.65625 104.382812 135.121094 C 103.953125 135.660156 104.011719 136.410156 103.5 136.914062 C 102.691406 137.71875 101.425781 137.652344 100.460938 138.179688 C 100.296875 138.25 100.152344 138.367188 100.046875 138.515625 C 99.96875 138.675781 99.929688 138.855469 99.941406 139.035156 C 99.925781 139.539062 99.90625 140.046875 99.890625 140.558594 C 99.40625 140.34375 99.355469 139.667969 98.96875 139.324219 C 98.542969 139.023438 97.964844 139.0625 97.585938 139.421875 C 97.226562 139.777344 96.996094 140.242188 96.925781 140.746094 C 96.867188 141.363281 96.957031 141.988281 97.195312 142.566406 C 97.457031 143.015625 97.769531 143.433594 98.128906 143.808594 C 98.128906 143.808594 98.507812 148.070312 97.839844 151 C 97.765625 151.289062 97.578125 151.535156 97.320312 151.683594 C 97.0625 151.832031 96.757812 151.867188 96.472656 151.78125 L 96.464844 151.78125 C 95.53125 151.507812 94.503906 151.285156 93.597656 151.640625 C 93.085938 151.933594 92.546875 152.175781 91.988281 152.363281 C 91.433594 152.417969 90.875 152.289062 90.40625 151.988281 C 90.242188 151.90625 90.085938 151.8125 89.929688 151.714844 C 89.097656 151.222656 88.339844 150.695312 87.992188 149.75 C 87.484375 148.390625 87.25 146.300781 87.945312 144.976562 C 88.429688 144.082031 89.320312 143.496094 89.9375 142.691406 C 90.792969 141.574219 91.035156 140.117188 91.109375 138.71875 C 91.183594 137.320312 91.09375 135.898438 91.394531 134.53125 C 91.898438 132.191406 92.566406 129.957031 94.363281 128.445312 C 97.253906 126.027344 103.886719 124.898438 110.289062 129.023438 C 111.351562 129.699219 111.929688 130.925781 111.773438 132.175781 Z M 111.773438 132.175781 "/>
<path style=" stroke:none;fill-rule:nonzero;fill:rgb(100%,81.960784%,67.058824%);fill-opacity:1;" d="M 102.816406 176.300781 C 102.207031 174.496094 96.746094 162.71875 95.113281 158.777344 C 94.042969 156.195312 92.089844 155.527344 92.089844 155.527344 C 89.5625 156.597656 89.007812 159.59375 89.484375 162.230469 C 91.480469 173.257812 98.953125 182.042969 100.121094 182.402344 C 98.738281 178.445312 102.816406 176.300781 102.816406 176.300781 Z M 102.816406 176.300781 "/>
<path style=" stroke:none;fill-rule:nonzero;fill:rgb(100%,81.960784%,67.058824%);fill-opacity:1;" d="M 117.855469 193.863281 C 117.851562 193.863281 117.851562 193.855469 117.84375 193.847656 C 117.414062 193.148438 116.820312 192.5625 116.109375 192.144531 C 110.230469 188.21875 101.714844 183.753906 100.117188 182.410156 C 100.117188 182.410156 96.191406 179.433594 102.636719 175.832031 C 103.734375 176.042969 113.898438 185.503906 117.320312 188.6875 C 117.929688 189.261719 118.714844 189.609375 119.550781 189.667969 C 122.277344 189.855469 125.292969 192.207031 125.746094 193.902344 C 125.976562 194.765625 120.316406 196.898438 117.855469 193.863281 Z M 117.855469 193.863281 "/>
<path style=" stroke:none;fill-rule:nonzero;fill:rgb(0%,78.823529%,68.235294%);fill-opacity:1;" d="M 90.472656 152.558594 C 90.472656 152.558594 85.65625 154.195312 86.230469 159.601562 C 86.402344 161.246094 89.121094 171.421875 89.121094 171.421875 C 90.824219 171.523438 92.535156 171.363281 94.191406 170.953125 C 96.578125 170.246094 99.152344 167.136719 99.152344 167.136719 C 99.152344 167.136719 97.238281 164.066406 97 161.871094 C 96.851562 160.503906 98.707031 161.566406 98.707031 161.566406 L 97.179688 154.195312 Z M 90.472656 152.558594 "/>
<path style=" stroke:none;fill-rule:nonzero;fill:rgb(1.960784%,11.372549%,17.647059%);fill-opacity:1;" d="M 118.824219 216.863281 C 118.277344 218.25 117.609375 219.589844 116.824219 220.859375 C 116.097656 222.152344 115.363281 223.429688 114.664062 224.734375 C 113.230469 227.316406 111.929688 229.964844 110.542969 232.605469 C 111.394531 229.738281 112.550781 226.976562 113.996094 224.363281 C 114.714844 223.050781 115.492188 221.78125 116.320312 220.546875 C 116.726562 219.929688 117.160156 219.320312 117.589844 218.714844 C 118.035156 218.125 118.449219 217.503906 118.824219 216.863281 Z M 118.824219 216.863281 "/>
<path style=" stroke:none;fill-rule:nonzero;fill:rgb(0%,78.823529%,68.235294%);fill-opacity:1;" d="M 115.734375 191.894531 C 116.660156 191.089844 117.402344 190.097656 117.914062 188.984375 C 117.914062 188.984375 110.875 182.527344 109.3125 181.136719 C 107.753906 179.746094 103.023438 175.90625 102.8125 175.5 C 102.605469 175.089844 99.152344 167.144531 99.152344 167.144531 L 91.992188 171.363281 C 91.992188 171.363281 95.007812 176.890625 96.234375 178.644531 C 97.75 180.652344 99.558594 182.414062 101.605469 183.875 C 103.828125 185.546875 115.734375 191.894531 115.734375 191.894531 Z M 115.734375 191.894531 "/>
<path style=" stroke:none;fill-rule:nonzero;fill:rgb(0%,62.745098%,52.156863%);fill-opacity:1;" d="M 86.4375 160.726562 C 87.195312 162.363281 87.96875 164 88.777344 165.613281 C 89.570312 167.234375 90.386719 168.839844 91.25 170.417969 C 92.125 171.996094 92.988281 173.574219 93.960938 175.082031 C 94.890625 176.609375 95.976562 178.035156 97.199219 179.335938 C 99.710938 181.867188 102.757812 183.859375 105.742188 185.84375 C 108.753906 187.808594 111.847656 189.667969 114.964844 191.484375 C 111.734375 189.882812 108.574219 188.113281 105.503906 186.226562 C 103.957031 185.296875 102.464844 184.269531 100.988281 183.21875 C 99.492188 182.179688 98.089844 181.011719 96.789062 179.738281 C 95.554688 178.398438 94.460938 176.929688 93.523438 175.367188 C 92.566406 173.824219 91.6875 172.242188 90.863281 170.628906 C 89.21875 167.40625 87.742188 164.101562 86.4375 160.726562 Z M 86.4375 160.726562 "/>
<path style=" stroke:none;fill-rule:nonzero;fill:rgb(0%,62.745098%,52.156863%);fill-opacity:1;" d="M 95.203125 161.105469 C 96.363281 163.1875 97.484375 165.285156 98.613281 167.382812 C 99.742188 169.480469 100.832031 171.59375 102.027344 173.640625 C 102.320312 174.152344 102.617188 174.671875 102.933594 175.148438 C 103.007812 175.265625 103.089844 175.378906 103.179688 175.480469 C 103.261719 175.597656 103.359375 175.695312 103.46875 175.78125 L 104.136719 176.367188 C 105.019531 177.15625 105.929688 177.9375 106.796875 178.742188 C 108.558594 180.339844 110.320312 181.945312 112.027344 183.597656 C 110.15625 182.125 108.328125 180.601562 106.5 179.074219 C 105.578125 178.316406 104.6875 177.535156 103.78125 176.761719 L 103.105469 176.179688 C 102.984375 176.082031 102.871094 175.96875 102.773438 175.847656 C 102.667969 175.726562 102.570312 175.601562 102.484375 175.46875 C 102.132812 174.960938 101.828125 174.449219 101.53125 173.933594 C 100.367188 171.84375 99.261719 169.734375 98.21875 167.597656 C 97.171875 165.441406 96.152344 163.289062 95.203125 161.105469 Z M 95.203125 161.105469 "/>
<path style=" stroke:none;fill-rule:nonzero;fill:rgb(0%,62.745098%,52.156863%);fill-opacity:1;" d="M 109.8125 158.09375 C 110.503906 159.28125 111.113281 160.515625 111.632812 161.789062 C 112.203125 163.066406 112.582031 164.417969 112.761719 165.804688 C 112.800781 167.210938 112.578125 168.609375 112.113281 169.933594 C 111.710938 171.25 111.222656 172.523438 110.867188 173.847656 C 111.042969 172.484375 111.316406 171.140625 111.683594 169.816406 C 112.046875 168.523438 112.214844 167.183594 112.183594 165.84375 C 112.007812 164.511719 111.683594 163.199219 111.214844 161.9375 C 110.777344 160.660156 110.296875 159.378906 109.8125 158.09375 Z M 109.8125 158.09375 "/>
<path style=" stroke:none;fill-rule:nonzero;fill:rgb(0%,62.745098%,52.156863%);fill-opacity:1;" d="M 117.179688 172.203125 C 117.023438 171.441406 116.988281 170.65625 117.085938 169.882812 C 117.171875 169.105469 117.363281 168.339844 117.65625 167.613281 C 117.957031 166.898438 118.332031 166.214844 118.777344 165.574219 C 119.191406 164.929688 119.617188 164.289062 120.078125 163.671875 C 119.75 164.371094 119.394531 165.046875 119.027344 165.722656 C 118.648438 166.378906 118.308594 167.054688 118.011719 167.753906 C 117.4375 169.164062 117.15625 170.679688 117.179688 172.203125 Z M 117.179688 172.203125 "/>
<path style=" stroke:none;fill-rule:nonzero;fill:rgb(0%,62.745098%,52.156863%);fill-opacity:1;" d="M 101.011719 175.363281 C 101.785156 175.207031 102.589844 175.300781 103.304688 175.640625 L 103 176.078125 C 102.429688 175.636719 101.734375 175.386719 101.011719 175.363281 Z M 101.011719 175.363281 "/>
<path style=" stroke:none;fill-rule:nonzero;fill:rgb(0%,62.745098%,52.156863%);fill-opacity:1;" d="M 106.351562 153.5625 C 106.363281 154.828125 105.921875 156.058594 105.109375 157.03125 C 104.640625 157.519531 103.992188 157.800781 103.3125 157.804688 C 102.664062 157.792969 102.027344 157.636719 101.445312 157.347656 C 100.3125 156.808594 99.300781 156.042969 98.472656 155.101562 C 97.648438 154.183594 96.988281 153.125 96.527344 151.980469 C 96.847656 152.496094 97.203125 152.984375 97.59375 153.453125 C 97.960938 153.929688 98.363281 154.375 98.796875 154.789062 C 99.648438 155.621094 100.625 156.304688 101.695312 156.820312 C 102.207031 157.074219 102.765625 157.21875 103.335938 157.25 C 103.886719 157.265625 104.417969 157.066406 104.828125 156.699219 C 105.257812 156.304688 105.59375 155.816406 105.808594 155.273438 C 106.039062 154.71875 106.21875 154.148438 106.351562 153.5625 Z M 106.351562 153.5625 "/>
<path style=" stroke:none;fill-rule:nonzero;fill:rgb(35.686275%,25.490196%,18.431373%);fill-opacity:1;" d="M 28.328125 240.808594 L 36.855469 240.808594 L 35.066406 245.34375 L 27.996094 245.34375 Z M 28.328125 240.808594 "/>
<path style=" stroke:none;fill-rule:nonzero;fill:rgb(35.686275%,25.490196%,18.431373%);fill-opacity:1;" d="M 172.511719 245.34375 L 165.445312 245.34375 L 163.65625 240.808594 L 172.175781 240.808594 Z M 172.511719 245.34375 "/>
<path style=" stroke:none;fill-rule:nonzero;fill:rgb(96.862745%,97.254902%,97.647059%);fill-opacity:1;" d="M 215.703125 81.851562 C 216.796875 66.640625 218.707031 50.757812 227.308594 38.164062 C 234.5 27.625 245.632812 20.535156 256.597656 14.015625 C 271.210938 5.328125 288.058594 -3.164062 304.492188 1.164062 C 316.429688 4.3125 325.6875 13.75 332.820312 23.835938 C 339.953125 33.921875 345.632812 45.085938 353.859375 54.296875 C 368.851562 71.078125 392.445312 81.921875 398.628906 103.566406 C 401.160156 112.425781 400.230469 122.074219 396.925781 130.667969 C 392.152344 142.925781 382.925781 152.917969 371.101562 158.644531 C 360.320312 163.804688 348.152344 165.046875 336.5 167.730469 C 316.074219 172.417969 297.039062 181.558594 276.886719 187.167969 C 262.683594 191.121094 240.351562 199.085938 226.945312 189.085938 C 214.425781 179.75 214.925781 159.925781 214.445312 146.0625 C 213.726562 124.652344 214.148438 103.21875 215.703125 81.851562 Z M 215.703125 81.851562 "/>
<path style=" stroke:none;fill-rule:nonzero;fill:rgb(40.784314%,49.803922%,62.745098%);fill-opacity:1;" d="M 235.332031 84.71875 C 234.964844 87.496094 234.640625 90.273438 234.28125 93.050781 C 234.082031 94.628906 233.871094 96.199219 233.636719 97.773438 C 233.441406 99.089844 233.160156 100.394531 233.03125 101.710938 C 233.023438 101.804688 233.171875 101.824219 233.199219 101.738281 C 233.542969 100.382812 233.789062 99.007812 233.941406 97.617188 C 234.160156 96.128906 234.351562 94.636719 234.535156 93.140625 C 234.878906 90.335938 235.175781 87.53125 235.5 84.71875 C 235.507812 84.621094 235.351562 84.621094 235.332031 84.71875 Z M 235.332031 84.71875 "/>
<path style=" stroke:none;fill-rule:nonzero;fill:rgb(62.352941%,74.117647%,97.647059%);fill-opacity:1;" d="M 340.503906 172.054688 L 341.617188 172.054688 L 334.578125 107.679688 C 334.519531 107.128906 334.054688 106.710938 333.503906 106.707031 L 297.285156 106.707031 C 296.730469 106.707031 296.265625 107.125 296.207031 107.679688 L 289.167969 172.054688 L 290.28125 172.054688 L 298.140625 111.777344 C 298.210938 111.238281 298.671875 110.832031 299.214844 110.832031 L 331.570312 110.832031 C 332.113281 110.832031 332.574219 111.238281 332.644531 111.777344 Z M 340.503906 172.054688 "/>
<path style=" stroke:none;fill-rule:nonzero;fill:rgb(62.352941%,74.117647%,97.647059%);fill-opacity:1;" d="M 334.753906 119.457031 L 296.019531 119.457031 L 297.429688 109.457031 L 333.320312 109.457031 Z M 334.753906 119.457031 "/>
<path style=" stroke:none;fill-rule:nonzero;fill:rgb(62.352941%,74.117647%,97.647059%);fill-opacity:1;" d="M 291.980469 152.601562 L 338.804688 152.601562 L 338.804688 154.214844 L 291.980469 154.214844 Z M 291.980469 152.601562 "/>
<path style=" stroke:none;fill-rule:nonzero;fill:rgb(96.862745%,70.980392%,61.176471%);fill-opacity:1;" d="M 293.046875 155.578125 C 292.679688 157.671875 293.546875 160.667969 293.546875 160.667969 L 292.898438 164.324219 L 290.699219 165.078125 L 285.1875 159.355469 C 285.515625 157.835938 285.683594 156.285156 285.6875 154.726562 Z M 293.046875 155.578125 "/>
<path style=" stroke:none;fill-rule:nonzero;fill:rgb(100%,35.294118%,37.254902%);fill-opacity:1;" d="M 294.453125 168.933594 C 293.972656 169.574219 289.328125 169.566406 288.136719 170.117188 C 286.957031 170.671875 284.179688 172.273438 281.390625 172.492188 C 278.597656 172.710938 274.355469 172.152344 273.488281 171.292969 C 272.628906 170.425781 273.46875 168.839844 273.46875 168.839844 C 273.46875 168.839844 273.320312 167.8125 273.828125 167.410156 C 274.328125 167.007812 276.96875 166.148438 278.789062 164.867188 C 280.609375 163.589844 283.296875 160.269531 284.960938 159.398438 C 284.960938 159.398438 285.609375 159.164062 287.085938 159.609375 C 288.566406 160.054688 288.914062 161.898438 290.183594 162.570312 C 291.054688 163.117188 292.199219 162.890625 292.792969 162.054688 C 293.117188 161.535156 293.257812 159.976562 293.695312 160.132812 C 294.121094 160.289062 294.890625 163.957031 294.578125 166.355469 C 294.570312 166.359375 294.9375 168.289062 294.453125 168.933594 Z M 294.453125 168.933594 "/>
<path style=" stroke:none;fill-rule:nonzero;fill:rgb(62.745098%,21.568627%,24.705882%);fill-opacity:1;" d="M 294.453125 168.933594 C 293.972656 169.574219 289.328125 169.566406 288.136719 170.117188 C 286.957031 170.671875 284.179688 172.273438 281.390625 172.492188 C 278.597656 172.710938 274.355469 172.152344 273.488281 171.292969 C 272.628906 170.425781 273.46875 168.839844 273.46875 168.839844 C 273.46875 168.839844 274.335938 170.277344 279.824219 169.898438 C 285.320312 169.53125 285.992188 168.269531 287.8125 167.707031 C 289.632812 167.148438 293.125 166.316406 294.566406 166.359375 C 294.570312 166.359375 294.9375 168.285156 294.453125 168.933594 Z M 294.453125 168.933594 "/>
<path style=" stroke:none;fill-rule:nonzero;fill:rgb(96.862745%,70.980392%,61.176471%);fill-opacity:1;" d="M 307.84375 155.726562 C 307.769531 157.269531 307.878906 158.816406 308.167969 160.335938 L 307.84375 164.035156 L 305.726562 164.980469 L 299.949219 160.015625 C 300.71875 158.582031 301.105469 156.976562 301.070312 155.351562 Z M 307.84375 155.726562 "/>
<path style=" stroke:none;fill-rule:nonzero;fill:rgb(100%,35.294118%,37.254902%);fill-opacity:1;" d="M 309.804688 168.480469 C 309.382812 169.15625 304.746094 169.566406 303.617188 170.222656 C 302.488281 170.871094 299.871094 172.71875 297.105469 173.195312 C 294.339844 173.667969 290.0625 173.476562 289.132812 172.695312 C 288.207031 171.90625 288.898438 170.25 288.898438 170.25 C 288.898438 170.25 288.660156 169.242188 289.125 168.792969 C 289.582031 168.347656 292.144531 167.257812 293.84375 165.824219 C 295.539062 164.386719 297.921875 160.84375 299.503906 159.828125 C 299.503906 159.828125 300.152344 159.425781 301.640625 159.84375 C 306.730469 161.300781 307.816406 159.671875 308.265625 159.785156 C 308.703125 159.90625 309.796875 163.492188 309.699219 165.910156 C 309.691406 165.910156 310.234375 167.796875 309.804688 168.480469 Z M 309.804688 168.480469 "/>
<path style=" stroke:none;fill-rule:nonzero;fill:rgb(62.745098%,21.568627%,24.705882%);fill-opacity:1;" d="M 309.804688 168.480469 C 309.382812 169.15625 304.746094 169.566406 303.617188 170.222656 C 302.488281 170.871094 299.871094 172.71875 297.105469 173.195312 C 294.339844 173.667969 290.0625 173.476562 289.132812 172.695312 C 288.207031 171.90625 288.898438 170.25 288.898438 170.25 C 288.898438 170.25 289.882812 171.597656 295.320312 170.75 C 300.765625 169.898438 301.324219 168.574219 303.09375 167.859375 C 304.859375 167.140625 308.265625 166 309.699219 165.910156 C 309.691406 165.910156 310.234375 167.796875 309.804688 168.480469 Z M 309.804688 168.480469 "/>
<path style=" stroke:none;fill-rule:nonzero;fill:rgb(2.352941%,16.078431%,26.666667%);fill-opacity:1;" d="M 295.382812 117.695312 C 295.898438 120.0625 296.582031 120.332031 296.808594 126.679688 C 297.203125 137.597656 294.910156 147.386719 293.363281 156.113281 C 293.363281 156.113281 288.214844 157.351562 285.511719 155.894531 C 283.4375 140.953125 281.765625 113.734375 283.351562 107.792969 C 284.355469 104.03125 305.289062 97.441406 308.675781 100.449219 C 311.433594 102.902344 314.242188 112.4375 307.496094 116.714844 C 305.882812 117.730469 297.230469 117.265625 295.382812 117.695312 Z M 295.382812 117.695312 "/>
<path style=" stroke:none;fill-rule:nonzero;fill:rgb(2.352941%,16.078431%,26.666667%);fill-opacity:1;" d="M 333.574219 98.203125 C 335.078125 101.710938 335.769531 107.546875 334.394531 110.402344 C 333.214844 112.855469 332.277344 113.96875 330.34375 115.363281 C 326.710938 117.984375 321.148438 118.773438 310.25 118.105469 C 314.75 130.269531 309.351562 148.148438 308.167969 156.746094 C 305.816406 157.832031 303.117188 157.878906 300.730469 156.875 C 299.382812 139.5 295.253906 110.203125 298.28125 104.832031 C 300.117188 101.5625 313.820312 98.152344 314.257812 98.207031 "/>
<path style=" stroke:none;fill-rule:nonzero;fill:rgb(1.960784%,11.372549%,17.647059%);fill-opacity:1;" d="M 297.710938 122.09375 C 297.378906 119.691406 297.136719 117.28125 296.984375 114.863281 C 296.777344 112.429688 296.777344 109.988281 296.972656 107.554688 C 297.007812 107.234375 297.066406 106.921875 297.140625 106.609375 C 297.183594 106.4375 297.234375 106.273438 297.296875 106.109375 C 297.367188 105.945312 297.453125 105.789062 297.558594 105.644531 C 297.914062 105.117188 298.328125 104.628906 298.792969 104.199219 C 299.6875 103.339844 300.683594 102.59375 301.757812 101.980469 C 303.871094 100.730469 306.21875 99.9375 308.65625 99.648438 C 306.359375 100.335938 304.175781 101.347656 302.167969 102.65625 C 301.183594 103.292969 300.257812 104.027344 299.414062 104.847656 C 299.003906 105.246094 298.628906 105.679688 298.292969 106.144531 C 298.015625 106.601562 297.855469 107.125 297.828125 107.660156 C 297.609375 110.042969 297.523438 112.433594 297.574219 114.828125 Z M 297.710938 122.09375 "/>
<path style=" stroke:none;fill-rule:nonzero;fill:rgb(100%,74.509804%,61.568627%);fill-opacity:1;" d="M 305.882812 74.210938 C 304.710938 73.832031 301.632812 68.003906 300.6875 68.207031 C 299.785156 71.792969 298.945312 78.328125 298.945312 78.328125 C 298.628906 80.40625 277.085938 89.335938 277.085938 89.335938 C 277.226562 90.324219 277.726562 91.230469 278.488281 91.878906 C 279.320312 92.488281 280.242188 92.964844 281.21875 93.296875 C 281.21875 93.296875 303.816406 88.3125 306.980469 83.015625 C 307.125 81.957031 308.554688 75.078125 305.882812 74.210938 Z M 305.882812 74.210938 "/>
<path style=" stroke:none;fill-rule:nonzero;fill:rgb(100%,35.294118%,37.254902%);fill-opacity:1;" d="M 314.582031 62.800781 C 314.582031 62.800781 312.113281 68.550781 309.53125 74.210938 C 308.671875 73.652344 307.683594 73.332031 306.664062 73.273438 C 301.875 72.773438 299.59375 72.074219 298.59375 71.652344 C 299.835938 66.632812 301.242188 60.875 301.507812 59.683594 C 302.644531 54.585938 304.984375 52.503906 304.984375 52.503906 Z M 314.582031 62.800781 "/>
<path style=" stroke:none;fill-rule:nonzero;fill:rgb(100%,35.294118%,37.254902%);fill-opacity:1;" d="M 333.125 99.398438 C 327.542969 100.105469 317.882812 99.125 310.90625 99.378906 C 304.65625 99.605469 303.5625 97.230469 303.5625 97.230469 C 303.800781 88.300781 304.957031 85.453125 304.5 78.8125 C 303.71875 67.59375 302.734375 55 304.953125 52.496094 C 309.3125 49.15625 318.125 47.769531 327.21875 50.601562 C 334.042969 52.722656 336.203125 54.730469 335.792969 59.875 C 335.671875 61.371094 332.003906 83.070312 332.929688 93.910156 C 333.027344 94.726562 333.3125 95.511719 333.761719 96.199219 C 334.457031 97.328125 333.753906 98.976562 333.125 99.398438 Z M 333.125 99.398438 "/>
<path style=" stroke:none;fill-rule:nonzero;fill:rgb(100%,35.294118%,37.254902%);fill-opacity:1;" d="M 338.238281 73.175781 C 334.621094 73.660156 330.964844 73.789062 327.324219 73.5625 C 327.15625 72.15625 326.984375 70.695312 326.824219 69.003906 C 326.582031 66.480469 325.941406 63.203125 326.292969 60.707031 C 326.746094 57.324219 328.023438 51.898438 332.109375 52.574219 C 339.417969 53.773438 338.238281 73.046875 338.238281 73.175781 Z M 338.238281 73.175781 "/>
<path style=" stroke:none;fill-rule:nonzero;fill:rgb(95.294118%,99.607843%,100%);fill-opacity:1;" d="M 313.355469 55.21875 C 311.25 65.269531 310.035156 75.488281 309.71875 85.753906 C 309.621094 89.828125 314.371094 98.378906 315.429688 98.765625 C 316.488281 99.152344 318.171875 90.265625 318.625 86.59375 C 319.082031 82.921875 314.957031 55.226562 314.957031 55.226562 "/>
<path style=" stroke:none;fill-rule:nonzero;fill:rgb(95.294118%,99.607843%,100%);fill-opacity:1;" d="M 313.515625 51.777344 C 314.144531 51.511719 314.847656 51.472656 315.5 51.671875 C 315.9375 51.863281 316.382812 53.089844 316.453125 53.433594 C 316.523438 53.785156 315.441406 54.890625 315.089844 55.304688 C 314.507812 55.363281 313.921875 55.332031 313.347656 55.210938 C 313.066406 54.625 312.875 53.996094 312.789062 53.351562 C 312.796875 52.746094 313.0625 52.175781 313.515625 51.777344 Z M 313.515625 51.777344 "/>
<path style=" stroke:none;fill-rule:nonzero;fill:rgb(100%,74.509804%,61.568627%);fill-opacity:1;" d="M 336.121094 73.5 C 335.964844 77.363281 336.207031 83.394531 333.898438 86.550781 C 330.308594 91.472656 302.726562 93.859375 302.726562 93.859375 C 302.726562 93.859375 301.773438 94.242188 301.222656 91.796875 C 301.097656 91.210938 301.109375 90.601562 301.257812 90.019531 C 301.257812 90.019531 311.171875 86.257812 317.65625 83.8125 C 321.269531 82.445312 324.054688 82.542969 326.914062 81.289062 C 326.617188 78.257812 326.3125 76.003906 326.011719 73.550781 C 329.371094 73.933594 332.765625 73.917969 336.121094 73.5 Z M 336.121094 73.5 "/>
<path style=" stroke:none;fill-rule:nonzero;fill:rgb(2.352941%,13.333333%,20%);fill-opacity:1;" d="M 306.53125 32.039062 C 306.53125 32.039062 305.191406 35.863281 307.40625 37.210938 C 307.40625 37.210938 306.785156 39.140625 309.042969 39.507812 C 311.304688 39.875 309.261719 32.503906 309.261719 32.503906 "/>
<path style=" stroke:none;fill-rule:nonzero;fill:rgb(100%,74.509804%,61.568627%);fill-opacity:1;" d="M 314.820312 45.796875 C 314.820312 45.796875 314.765625 46.726562 314.695312 47.558594 C 314.566406 48.128906 314.472656 48.707031 314.417969 49.285156 C 314.382812 50.050781 314.484375 50.816406 314.714844 51.546875 C 314.992188 52.039062 315.605469 51.484375 316.175781 51.644531 C 321.679688 53.152344 322.449219 49.652344 322.449219 49.652344 C 321.90625 47.578125 322.921875 42.300781 322.921875 42.300781 "/>
<path style=" stroke:none;fill-rule:nonzero;fill:rgb(100%,74.509804%,61.568627%);fill-opacity:1;" d="M 309.015625 41.191406 C 309.367188 42.949219 310.296875 44.539062 311.660156 45.703125 C 313.207031 46.8125 315.144531 47.222656 317.007812 46.84375 C 320.332031 46.1875 322.972656 43.660156 323.78125 40.367188 C 324.484375 37.046875 323.199219 33.621094 320.488281 31.585938 C 318.011719 29.789062 311.835938 28.378906 309.183594 30.21875 C 306.496094 32.09375 308.335938 38.402344 309.015625 41.191406 Z M 309.015625 41.191406 "/>
<path style=" stroke:none;fill-rule:nonzero;fill:rgb(98.823529%,70.196078%,57.254902%);fill-opacity:1;" d="M 323.78125 40.367188 C 322.980469 43.664062 320.339844 46.191406 317.015625 46.84375 C 315.34375 47.167969 313.609375 46.878906 312.132812 46.027344 C 313.191406 46.234375 314.269531 46.292969 315.34375 46.195312 C 318.589844 45.605469 321.53125 42.984375 322.257812 39.753906 C 323 36.527344 320.945312 32.714844 318.265625 30.761719 C 317.988281 30.554688 317.691406 30.375 317.382812 30.21875 C 319.59375 30.683594 321.519531 32.027344 322.722656 33.9375 C 323.929688 35.851562 324.308594 38.167969 323.78125 40.367188 Z M 323.78125 40.367188 "/>
<path style=" stroke:none;fill-rule:nonzero;fill:rgb(2.352941%,16.078431%,26.666667%);fill-opacity:1;" d="M 304.980469 30.09375 C 305.261719 32.292969 307.320312 33.984375 309.4375 34.273438 C 311.605469 34.574219 315.808594 34.5625 317.25 32.917969 C 317.304688 35.082031 321.214844 39.199219 323.203125 39.847656 C 323.097656 41.285156 322.914062 42.136719 322.71875 43.40625 C 323.71875 43.898438 325.214844 42.539062 325.785156 41.585938 C 326.355469 40.632812 328.488281 34.695312 327.945312 32.042969 C 327.394531 29.390625 326.25 27.144531 323.546875 27.285156 C 323.332031 24.945312 321.679688 22.992188 319.410156 22.398438 C 317.140625 21.804688 314.746094 22.699219 313.417969 24.636719 C 313.53125 24.480469 311.886719 24.152344 311.765625 24.136719 C 311.09375 24.003906 310.402344 24.015625 309.734375 24.164062 C 308.476562 24.492188 307.34375 25.179688 306.46875 26.144531 C 305.648438 26.992188 305.125 28.082031 304.972656 29.253906 C 304.941406 29.535156 304.945312 29.816406 304.980469 30.09375 Z M 304.980469 30.09375 "/>
<path style=" stroke:none;fill-rule:nonzero;fill:rgb(100%,74.509804%,61.568627%);fill-opacity:1;" d="M 320.035156 36.019531 C 320.050781 35.78125 320.164062 35.558594 320.347656 35.40625 C 320.6875 35.078125 321.152344 34.917969 321.621094 34.96875 C 322.085938 35.019531 322.507812 35.269531 322.773438 35.660156 C 323.5 36.699219 323.261719 41.039062 321.441406 39.71875 C 320 38.664062 319.980469 36.773438 320.035156 36.019531 Z M 320.035156 36.019531 "/>
<path style=" stroke:none;fill-rule:nonzero;fill:rgb(100%,41.176471%,45.490196%);fill-opacity:1;" d="M 322.300781 47.316406 C 322.964844 48.082031 323.554688 48.914062 324.058594 49.796875 C 323.203125 50.53125 322.300781 51.210938 321.355469 51.828125 C 319.605469 52.851562 317.800781 53.777344 315.949219 54.597656 L 314.714844 51.539062 C 314.703125 51.539062 319.929688 48.726562 322.300781 47.316406 Z M 322.300781 47.316406 "/>
<path style=" stroke:none;fill-rule:nonzero;fill:rgb(100%,41.176471%,45.490196%);fill-opacity:1;" d="M 314.703125 51.539062 C 313.84375 52.273438 313.066406 53.101562 312.394531 54.011719 C 312.0625 52.636719 312.085938 51.199219 312.464844 49.839844 C 312.464844 49.839844 313.742188 47.867188 314.6875 47.550781 C 314.695312 47.5625 314.335938 50.339844 314.703125 51.539062 Z M 314.703125 51.539062 "/>
<path style=" stroke:none;fill-rule:nonzero;fill:rgb(62.745098%,21.568627%,24.705882%);fill-opacity:1;" d="M 325.1875 62.625 C 325.355469 64.445312 325.460938 66.269531 325.566406 68.085938 C 325.703125 69.898438 325.757812 71.730469 325.976562 73.492188 L 325.574219 73.105469 C 327.558594 73.28125 329.574219 73.378906 331.578125 73.421875 C 332.582031 73.441406 333.582031 73.441406 334.585938 73.421875 C 335.59375 73.414062 336.601562 73.335938 337.605469 73.265625 C 336.625 73.53125 335.628906 73.738281 334.621094 73.878906 C 333.617188 74.011719 332.601562 74.105469 331.585938 74.152344 C 329.550781 74.242188 327.511719 74.191406 325.484375 73.996094 L 325.125 73.960938 L 325.09375 73.601562 C 324.90625 71.769531 324.839844 69.925781 324.898438 68.085938 C 324.925781 66.269531 325.003906 64.449219 325.1875 62.625 Z M 325.1875 62.625 "/>
<path style=" stroke:none;fill-rule:nonzero;fill:rgb(62.745098%,21.568627%,24.705882%);fill-opacity:1;" d="M 303.757812 61.40625 C 304.019531 64.183594 304.136719 66.9375 304.257812 69.6875 C 304.355469 72.449219 304.484375 75.191406 304.441406 77.988281 C 303.804688 75.277344 303.441406 72.507812 303.355469 69.722656 C 303.21875 66.945312 303.355469 64.160156 303.757812 61.40625 Z M 303.757812 61.40625 "/>
<path style=" stroke:none;fill-rule:nonzero;fill:rgb(34.509804%,72.156863%,86.666667%);fill-opacity:1;" d="M 321.46875 97.171875 L 270.722656 97.171875 C 270.582031 97.171875 270.460938 97.074219 270.433594 96.933594 L 263.851562 67.855469 C 263.832031 67.769531 263.851562 67.675781 263.910156 67.601562 C 263.964844 67.53125 264.050781 67.488281 264.140625 67.488281 L 314.886719 67.488281 C 315.027344 67.488281 315.152344 67.585938 315.175781 67.726562 L 321.757812 96.800781 C 321.777344 96.890625 321.753906 96.984375 321.699219 97.054688 C 321.644531 97.125 321.558594 97.167969 321.46875 97.171875 Z M 321.46875 97.171875 "/>
<path style=" stroke:none;fill-rule:nonzero;fill:rgb(51.372549%,80.392157%,94.901961%);fill-opacity:1;" d="M 319.449219 96.800781 C 319.46875 96.890625 319.449219 96.984375 319.390625 97.054688 C 319.335938 97.125 319.25 97.164062 319.160156 97.164062 L 270.722656 97.164062 C 270.582031 97.164062 270.460938 97.0625 270.433594 96.925781 L 263.851562 67.847656 C 263.832031 67.757812 263.851562 67.667969 263.910156 67.59375 C 263.964844 67.523438 264.050781 67.480469 264.140625 67.480469 L 312.578125 67.480469 C 312.71875 67.476562 312.839844 67.578125 312.867188 67.714844 Z M 319.449219 96.800781 "/>
<path style=" stroke:none;fill-rule:nonzero;fill:rgb(34.509804%,72.156863%,86.666667%);fill-opacity:1;" d="M 333.136719 97.171875 L 320.191406 97.171875 C 319.71875 97.171875 319.335938 96.785156 319.335938 96.3125 C 319.335938 95.839844 319.71875 95.453125 320.191406 95.453125 L 333.132812 95.453125 C 333.609375 95.453125 333.992188 95.839844 333.992188 96.3125 C 333.992188 96.539062 333.902344 96.757812 333.742188 96.921875 C 333.582031 97.082031 333.363281 97.171875 333.136719 97.171875 Z M 333.136719 97.171875 "/>
<path style=" stroke:none;fill-rule:nonzero;fill:rgb(34.509804%,72.156863%,86.666667%);fill-opacity:1;" d="M 295.03125 81.589844 C 295.03125 80.058594 293 78.820312 290.492188 78.820312 C 287.984375 78.820312 285.949219 80.058594 285.949219 81.589844 C 285.949219 83.117188 287.984375 84.359375 290.492188 84.359375 C 293 84.359375 295.03125 83.117188 295.03125 81.589844 Z M 295.03125 81.589844 "/>
<path style=" stroke:none;fill-rule:nonzero;fill:rgb(100%,100%,100%);fill-opacity:1;" d="M 248.519531 73.613281 L 260.683594 74.578125 L 261.890625 85.394531 L 261.390625 97.171875 L 249.199219 97.164062 L 245.535156 90.761719 Z M 248.519531 73.613281 "/>
<path style=" stroke:none;fill-rule:nonzero;fill:rgb(88.627451%,90.980392%,90.980392%);fill-opacity:1;" d="M 231.226562 97.164062 L 230.675781 94.4375 L 231.578125 93.753906 L 230.675781 92.921875 L 231.132812 88.582031 L 230.675781 85.234375 L 232.539062 79.914062 L 232.539062 74.167969 L 248.519531 73.613281 L 248.03125 78.304688 L 248.519531 80.816406 L 248.519531 87.742188 L 249.203125 90.101562 L 249.203125 97.164062 Z M 231.226562 97.164062 "/>
<path style=" stroke:none;fill-rule:nonzero;fill:rgb(79.215686%,84.705882%,84.705882%);fill-opacity:1;" d="M 232.542969 79.914062 L 243.769531 79.714844 L 232.542969 79.335938 Z M 232.542969 79.914062 "/>
<path style=" stroke:none;fill-rule:nonzero;fill:rgb(79.215686%,84.705882%,84.705882%);fill-opacity:1;" d="M 248.03125 78.304688 L 236.808594 78.53125 L 248.5625 78.855469 "/>
<path style=" stroke:none;fill-rule:nonzero;fill:rgb(79.215686%,84.705882%,84.705882%);fill-opacity:1;" d="M 230.675781 85.234375 L 243.769531 85.234375 L 230.789062 86.066406 Z M 230.675781 85.234375 "/>
<path style=" stroke:none;fill-rule:nonzero;fill:rgb(79.215686%,84.705882%,84.705882%);fill-opacity:1;" d="M 231.078125 88.1875 L 244.933594 87.742188 L 231.054688 89.292969 Z M 231.078125 88.1875 "/>
<path style=" stroke:none;fill-rule:nonzero;fill:rgb(79.215686%,84.705882%,84.705882%);fill-opacity:1;" d="M 231.578125 93.753906 L 245.535156 93.382812 L 230.679688 92.917969 Z M 231.578125 93.753906 "/>
<path style=" stroke:none;fill-rule:nonzero;fill:rgb(79.215686%,84.705882%,84.705882%);fill-opacity:1;" d="M 249.203125 90.097656 L 237.222656 91.175781 L 249.203125 90.632812 Z M 249.203125 90.097656 "/>
<path style=" stroke:none;fill-rule:nonzero;fill:rgb(79.215686%,84.705882%,84.705882%);fill-opacity:1;" d="M 232.542969 75.804688 L 246.386719 76.542969 L 232.542969 76.542969 Z M 232.542969 75.804688 "/>
<path style=" stroke:none;fill-rule:nonzero;fill:rgb(62.352941%,74.117647%,97.647059%);fill-opacity:1;" d="M 356.011719 172.78125 L 353.777344 172.78125 C 353.4375 172.78125 353.144531 172.550781 353.058594 172.222656 L 335.800781 105.207031 L 334.816406 101.371094 L 344.925781 101.371094 L 345.5625 105.207031 L 356.730469 171.914062 C 356.773438 172.128906 356.71875 172.351562 356.578125 172.519531 C 356.4375 172.6875 356.230469 172.785156 356.011719 172.78125 Z M 356.011719 172.78125 "/>
<path style=" stroke:none;fill-rule:nonzero;fill:rgb(62.352941%,74.117647%,97.647059%);fill-opacity:1;" d="M 238.851562 101.367188 L 237.863281 105.207031 L 220.605469 172.222656 C 220.523438 172.550781 220.226562 172.78125 219.890625 172.78125 L 217.664062 172.78125 C 217.445312 172.78125 217.238281 172.6875 217.097656 172.519531 C 216.957031 172.351562 216.898438 172.128906 216.9375 171.914062 L 228.105469 105.214844 L 228.746094 101.375 L 238.851562 101.375 Z M 238.851562 101.367188 "/>
<path style=" stroke:none;fill-rule:nonzero;fill:rgb(53.333333%,66.666667%,88.627451%);fill-opacity:1;" d="M 228.742188 101.367188 L 238.851562 101.367188 L 237.863281 105.21875 L 228.105469 105.21875 Z M 228.742188 101.367188 "/>
<path style=" stroke:none;fill-rule:nonzero;fill:rgb(53.333333%,66.666667%,88.627451%);fill-opacity:1;" d="M 345.570312 105.214844 L 335.8125 105.214844 L 334.824219 101.367188 L 344.933594 101.367188 Z M 345.570312 105.214844 "/>
<path style=" stroke:none;fill-rule:nonzero;fill:rgb(62.352941%,74.117647%,97.647059%);fill-opacity:1;" d="M 216.648438 101.367188 L 358.558594 101.367188 C 359.113281 101.371094 359.648438 101.148438 360.042969 100.753906 C 360.4375 100.359375 360.660156 99.824219 360.65625 99.265625 C 360.660156 98.707031 360.4375 98.171875 360.042969 97.777344 C 359.648438 97.382812 359.113281 97.160156 358.558594 97.164062 L 216.648438 97.164062 C 216.09375 97.160156 215.558594 97.382812 215.164062 97.777344 C 214.769531 98.171875 214.546875 98.707031 214.550781 99.265625 C 214.546875 99.824219 214.769531 100.359375 215.164062 100.753906 C 215.558594 101.148438 216.09375 101.371094 216.648438 101.367188 Z M 216.648438 101.367188 "/>
<path style=" stroke:none;fill-rule:nonzero;fill:rgb(56.078431%,69.803922%,91.764706%);fill-opacity:1;" d="M 360.648438 99.265625 C 360.648438 99.824219 360.429688 100.359375 360.035156 100.753906 C 359.640625 101.148438 359.105469 101.371094 358.546875 101.367188 L 216.640625 101.367188 C 216.082031 101.371094 215.546875 101.148438 215.152344 100.753906 C 214.757812 100.359375 214.539062 99.824219 214.539062 99.265625 Z M 360.648438 99.265625 "/>
<path style=" stroke:none;fill-rule:nonzero;fill:rgb(76.470588%,94.117647%,98.823529%);fill-opacity:1;" d="M 344.808594 90.074219 C 344.628906 89.566406 344.246094 89.164062 343.75 88.960938 C 343.292969 88.796875 342.796875 88.765625 342.324219 88.871094 L 342.464844 87.785156 L 333.433594 87.785156 L 334.5 96.058594 C 334.542969 96.398438 334.722656 96.703125 335 96.90625 C 335.128906 97.003906 335.277344 97.074219 335.4375 97.117188 C 335.542969 97.144531 335.648438 97.15625 335.757812 97.160156 L 340.125 97.160156 C 340.398438 97.160156 340.660156 97.074219 340.878906 96.914062 C 340.878906 96.910156 340.882812 96.90625 340.886719 96.90625 L 340.898438 96.894531 C 341.167969 96.691406 341.34375 96.390625 341.386719 96.054688 L 341.507812 95.097656 C 341.929688 94.871094 342.335938 94.621094 342.726562 94.34375 C 344.125 93.296875 345.5625 92.007812 344.808594 90.074219 Z M 342.332031 93.839844 C 342.097656 94.011719 341.855469 94.167969 341.605469 94.3125 L 342.230469 89.554688 C 342.648438 89.425781 343.097656 89.429688 343.515625 89.566406 C 343.839844 89.703125 344.09375 89.972656 344.207031 90.308594 C 344.746094 91.683594 343.925781 92.640625 342.332031 93.839844 Z M 342.332031 93.839844 "/>
<path style=" stroke:none;fill-rule:nonzero;fill:rgb(67.843137%,91.372549%,96.862745%);fill-opacity:1;" d="M 342.464844 87.785156 L 342.324219 88.871094 L 342.234375 89.546875 L 341.613281 94.304688 L 341.507812 95.105469 L 341.386719 96.058594 C 341.34375 96.394531 341.167969 96.699219 340.894531 96.902344 L 340.878906 96.917969 C 340.660156 97.078125 340.394531 97.164062 340.125 97.164062 L 335.757812 97.164062 C 335.648438 97.164062 335.539062 97.148438 335.433594 97.121094 C 336.152344 96.820312 340.457031 94.738281 340.640625 87.785156 Z M 342.464844 87.785156 "/>
<path style=" stroke:none;fill-rule:nonzero;fill:rgb(2.352941%,16.078431%,26.666667%);fill-opacity:1;" d="M 90.875 115.589844 C 90.457031 114.542969 90.960938 113.355469 92 112.933594 C 93.042969 112.511719 94.230469 113.019531 94.652344 114.0625 C 95.070312 115.105469 94.570312 116.292969 93.527344 116.714844 C 92.484375 117.136719 91.296875 116.632812 90.875 115.589844 Z M 90.875 115.589844 "/>
<path style=" stroke:none;fill-rule:nonzero;fill:rgb(2.352941%,16.078431%,26.666667%);fill-opacity:1;" d="M 94.625 101.214844 C 94.203125 100.171875 94.707031 98.984375 95.75 98.5625 C 96.792969 98.140625 97.976562 98.644531 98.398438 99.6875 C 98.820312 100.734375 98.316406 101.921875 97.273438 102.34375 C 96.230469 102.765625 95.046875 102.257812 94.625 101.214844 Z M 94.625 101.214844 "/>
<path style=" stroke:none;fill-rule:nonzero;fill:rgb(2.352941%,16.078431%,26.666667%);fill-opacity:1;" d="M 103.566406 86.257812 C 103.148438 85.214844 103.648438 84.027344 104.691406 83.605469 C 105.734375 83.183594 106.921875 83.6875 107.34375 84.730469 C 107.761719 85.773438 107.257812 86.960938 106.21875 87.382812 C 105.175781 87.804688 103.988281 87.300781 103.566406 86.257812 Z M 103.566406 86.257812 "/>
<path style=" stroke:none;fill-rule:nonzero;fill:rgb(2.352941%,16.078431%,26.666667%);fill-opacity:1;" d="M 117.179688 71.289062 C 116.757812 70.246094 117.261719 69.058594 118.304688 68.636719 C 119.347656 68.214844 120.53125 68.71875 120.953125 69.761719 C 121.375 70.808594 120.871094 71.996094 119.828125 72.417969 C 118.789062 72.839844 117.601562 72.335938 117.179688 71.289062 Z M 117.179688 71.289062 "/>
<path style=" stroke:none;fill-rule:nonzero;fill:rgb(2.352941%,16.078431%,26.666667%);fill-opacity:1;" d="M 134.933594 56.894531 C 134.511719 55.851562 135.015625 54.664062 136.058594 54.242188 C 137.101562 53.820312 138.285156 54.324219 138.707031 55.367188 C 139.128906 56.414062 138.625 57.601562 137.582031 58.023438 C 136.539062 58.445312 135.355469 57.941406 134.933594 56.894531 Z M 134.933594 56.894531 "/>
<path style=" stroke:none;fill-rule:nonzero;fill:rgb(2.352941%,16.078431%,26.666667%);fill-opacity:1;" d="M 156.300781 43.65625 C 155.878906 42.613281 156.382812 41.425781 157.425781 41.003906 C 158.464844 40.582031 159.652344 41.085938 160.074219 42.128906 C 160.496094 43.171875 159.992188 44.359375 158.949219 44.78125 C 157.90625 45.203125 156.722656 44.699219 156.300781 43.65625 Z M 156.300781 43.65625 "/>
<path style=" stroke:none;fill-rule:nonzero;fill:rgb(2.352941%,16.078431%,26.666667%);fill-opacity:1;" d="M 180.753906 32.148438 C 180.332031 31.105469 180.835938 29.917969 181.878906 29.496094 C 182.917969 29.074219 184.105469 29.578125 184.527344 30.621094 C 184.949219 31.664062 184.445312 32.851562 183.402344 33.273438 C 182.359375 33.695312 181.175781 33.191406 180.753906 32.148438 Z M 180.753906 32.148438 "/>
<path style=" stroke:none;fill-rule:nonzero;fill:rgb(2.352941%,16.078431%,26.666667%);fill-opacity:1;" d="M 206.324219 23.417969 C 205.902344 22.371094 206.40625 21.183594 207.449219 20.761719 C 208.492188 20.339844 209.675781 20.84375 210.097656 21.890625 C 210.519531 22.933594 210.015625 24.121094 208.972656 24.542969 C 207.929688 24.964844 206.746094 24.460938 206.324219 23.417969 Z M 206.324219 23.417969 "/>
<path style=" stroke:none;fill-rule:nonzero;fill:rgb(2.352941%,16.078431%,26.666667%);fill-opacity:1;" d="M 230.878906 18.078125 C 230.457031 17.03125 230.960938 15.84375 232.003906 15.421875 C 233.042969 15 234.230469 15.507812 234.652344 16.550781 C 235.074219 17.59375 234.570312 18.78125 233.527344 19.203125 C 232.484375 19.625 231.296875 19.121094 230.878906 18.078125 Z M 230.878906 18.078125 "/>
<path style=" stroke:none;fill-rule:nonzero;fill:rgb(2.352941%,16.078431%,26.666667%);fill-opacity:1;" d="M 253.632812 16.082031 C 253.210938 15.039062 253.714844 13.851562 254.757812 13.429688 C 255.800781 13.007812 256.984375 13.511719 257.40625 14.554688 C 257.828125 15.597656 257.324219 16.785156 256.28125 17.207031 C 255.242188 17.628906 254.054688 17.125 253.632812 16.082031 Z M 253.632812 16.082031 "/>
<path style=" stroke:none;fill-rule:nonzero;fill:rgb(2.352941%,16.078431%,26.666667%);fill-opacity:1;" d="M 273.808594 17.378906 C 273.386719 16.335938 273.890625 15.148438 274.929688 14.726562 C 275.972656 14.304688 277.160156 14.808594 277.582031 15.851562 C 278.003906 16.894531 277.5 18.082031 276.457031 18.503906 C 275.414062 18.925781 274.226562 18.421875 273.808594 17.378906 Z M 273.808594 17.378906 "/>
<path style=" stroke:none;fill-rule:nonzero;fill:rgb(2.352941%,16.078431%,26.666667%);fill-opacity:1;" d="M 290.617188 21.917969 C 290.199219 20.871094 290.703125 19.683594 291.742188 19.261719 C 292.785156 18.839844 293.972656 19.34375 294.394531 20.390625 C 294.8125 21.433594 294.3125 22.621094 293.269531 23.042969 C 292.226562 23.464844 291.039062 22.960938 290.617188 21.917969 Z M 290.617188 21.917969 "/>
<path style=" stroke:none;fill-rule:nonzero;fill:rgb(2.352941%,16.078431%,26.666667%);fill-opacity:1;" d="M 335.800781 166.59375 C 336.292969 167.605469 335.875 168.824219 334.863281 169.316406 C 333.851562 169.8125 332.632812 169.390625 332.140625 168.378906 C 331.648438 167.367188 332.070312 166.144531 333.078125 165.652344 C 334.089844 165.160156 335.308594 165.582031 335.800781 166.59375 Z M 335.800781 166.59375 "/>
<path style=" stroke:none;fill-rule:nonzero;fill:rgb(2.352941%,16.078431%,26.666667%);fill-opacity:1;" d="M 333.058594 181.191406 C 333.550781 182.203125 333.128906 183.421875 332.117188 183.914062 C 331.109375 184.410156 329.890625 183.988281 329.398438 182.976562 C 328.90625 181.964844 329.324219 180.746094 330.335938 180.25 C 331.347656 179.757812 332.566406 180.179688 333.058594 181.191406 Z M 333.058594 181.191406 "/>
<path style=" stroke:none;fill-rule:nonzero;fill:rgb(2.352941%,16.078431%,26.666667%);fill-opacity:1;" d="M 325.171875 196.734375 C 325.664062 197.746094 325.242188 198.96875 324.234375 199.460938 C 323.222656 199.953125 322.003906 199.53125 321.511719 198.519531 C 321.019531 197.507812 321.4375 196.289062 322.449219 195.796875 C 323.460938 195.300781 324.679688 195.722656 325.171875 196.734375 Z M 325.171875 196.734375 "/>
<path style=" stroke:none;fill-rule:nonzero;fill:rgb(2.352941%,16.078431%,26.666667%);fill-opacity:1;" d="M 312.628906 212.609375 C 313.121094 213.625 312.699219 214.84375 311.6875 215.335938 C 310.679688 215.828125 309.460938 215.410156 308.96875 214.398438 C 308.476562 213.386719 308.894531 212.164062 309.90625 211.671875 C 310.917969 211.179688 312.136719 211.597656 312.628906 212.609375 Z M 312.628906 212.609375 "/>
<path style=" stroke:none;fill-rule:nonzero;fill:rgb(2.352941%,16.078431%,26.666667%);fill-opacity:1;" d="M 295.914062 228.203125 C 296.40625 229.214844 295.984375 230.4375 294.976562 230.929688 C 293.964844 231.421875 292.746094 231 292.253906 229.988281 C 291.761719 228.976562 292.183594 227.757812 293.191406 227.265625 C 294.203125 226.769531 295.421875 227.191406 295.914062 228.203125 Z M 295.914062 228.203125 "/>
<path style=" stroke:none;fill-rule:nonzero;fill:rgb(2.352941%,16.078431%,26.666667%);fill-opacity:1;" d="M 275.515625 242.894531 C 276.007812 243.90625 275.585938 245.128906 274.578125 245.621094 C 273.566406 246.113281 272.347656 245.695312 271.855469 244.683594 C 271.363281 243.667969 271.78125 242.449219 272.792969 241.957031 C 273.804688 241.464844 275.023438 241.882812 275.515625 242.894531 Z M 275.515625 242.894531 "/>
<path style=" stroke:none;fill-rule:nonzero;fill:rgb(2.352941%,16.078431%,26.666667%);fill-opacity:1;" d="M 251.917969 256.074219 C 252.410156 257.085938 251.988281 258.304688 250.976562 258.800781 C 249.96875 259.292969 248.75 258.871094 248.257812 257.859375 C 247.765625 256.847656 248.183594 255.628906 249.195312 255.132812 C 250.207031 254.640625 251.421875 255.0625 251.917969 256.074219 Z M 251.917969 256.074219 "/>
<path style=" stroke:none;fill-rule:nonzero;fill:rgb(2.352941%,16.078431%,26.666667%);fill-opacity:1;" d="M 227.011719 266.5625 C 227.503906 267.574219 227.082031 268.792969 226.074219 269.285156 C 225.0625 269.777344 223.84375 269.359375 223.351562 268.347656 C 222.859375 267.335938 223.28125 266.113281 224.289062 265.621094 C 225.300781 265.128906 226.519531 265.550781 227.011719 266.5625 Z M 227.011719 266.5625 "/>
<path style=" stroke:none;fill-rule:nonzero;fill:rgb(2.352941%,16.078431%,26.666667%);fill-opacity:1;" d="M 202.886719 273.59375 C 203.378906 274.605469 202.957031 275.824219 201.949219 276.316406 C 200.9375 276.8125 199.71875 276.390625 199.226562 275.378906 C 198.734375 274.367188 199.152344 273.144531 200.164062 272.652344 C 201.175781 272.160156 202.394531 272.582031 202.886719 273.59375 Z M 202.886719 273.59375 "/>
<path style=" stroke:none;fill-rule:nonzero;fill:rgb(2.352941%,16.078431%,26.666667%);fill-opacity:1;" d="M 180.324219 277.164062 C 180.816406 278.175781 180.394531 279.394531 179.382812 279.886719 C 178.375 280.382812 177.15625 279.960938 176.664062 278.949219 C 176.171875 277.9375 176.589844 276.714844 177.601562 276.222656 C 178.613281 275.730469 179.828125 276.152344 180.324219 277.164062 Z M 180.324219 277.164062 "/>
<path style=" stroke:none;fill-rule:nonzero;fill:rgb(2.352941%,16.078431%,26.666667%);fill-opacity:1;" d="M 160.105469 277.269531 C 160.597656 278.28125 160.179688 279.503906 159.167969 279.996094 C 158.15625 280.488281 156.941406 280.066406 156.449219 279.054688 C 155.953125 278.042969 156.375 276.824219 157.386719 276.332031 C 158.394531 275.835938 159.613281 276.257812 160.105469 277.269531 Z M 160.105469 277.269531 "/>
<path style=" stroke:none;fill-rule:nonzero;fill:rgb(2.352941%,16.078431%,26.666667%);fill-opacity:1;" d="M 143.019531 273.910156 C 143.511719 274.921875 143.09375 276.140625 142.082031 276.636719 C 141.070312 277.128906 139.855469 276.707031 139.363281 275.695312 C 138.867188 274.683594 139.289062 273.464844 140.300781 272.96875 C 141.308594 272.476562 142.527344 272.898438 143.019531 273.910156 Z M 143.019531 273.910156 "/>
<path style=" stroke:none;fill-rule:nonzero;fill:rgb(2.352941%,16.078431%,26.666667%);fill-opacity:1;" d="M 129.851562 267.078125 C 130.34375 268.089844 129.921875 269.308594 128.910156 269.800781 C 127.902344 270.292969 126.683594 269.875 126.191406 268.863281 C 125.699219 267.851562 126.117188 266.628906 127.128906 266.136719 C 128.140625 265.644531 129.359375 266.066406 129.851562 267.078125 Z M 129.851562 267.078125 "/>
<path style=" stroke:none;fill-rule:nonzero;fill:rgb(2.352941%,16.078431%,26.666667%);fill-opacity:1;" d="M 121.378906 256.765625 C 121.871094 257.777344 121.453125 258.996094 120.441406 259.488281 C 119.429688 259.984375 118.210938 259.5625 117.71875 258.550781 C 117.226562 257.539062 117.648438 256.316406 118.65625 255.824219 C 119.667969 255.332031 120.886719 255.753906 121.378906 256.765625 Z M 121.378906 256.765625 "/>
</g>
</svg>
