<svg id="Groupe_68" data-name="Groupe 68" xmlns="http://www.w3.org/2000/svg" width="52.01" height="40.81" viewBox="0 0 52.01 40.81">
  <path id="Tracé_141" data-name="Tracé 141" d="M0,28.62A12.206,12.206,0,0,0,12.19,40.81c6.55,0,11.68-5.16,12.2-12.27.07-.9.1-1.77.1-2.63A36.7,36.7,0,0,0,13.4,0c-.27.27-.58.59-1.05,1.06-.55.56-1.32,1.34-2.47,2.5,4.41,6.78,3.58,11.62,3.21,12.31a1.022,1.022,0,0,1-.9.55A12.208,12.208,0,0,0,0,28.62Z" fill="#fff"/>
  <path id="Tracé_142" data-name="Tracé 142" d="M27.52,28.62A12.2,12.2,0,0,0,39.71,40.81c6.55,0,11.68-5.16,12.2-12.27.07-.9.1-1.77.1-2.63A36.738,36.738,0,0,0,40.92,0c-.28.27-.59.59-1.06,1.06-.55.57-1.31,1.34-2.46,2.5,4.4,6.78,3.57,11.62,3.21,12.31a1.033,1.033,0,0,1-.9.55A12.2,12.2,0,0,0,27.52,28.62Z" fill="#fff"/>
</svg>
