<svg xmlns="http://www.w3.org/2000/svg" width="35.213" height="61.86" viewBox="0 0 35.213 61.86"><defs><style>.a{fill:#00c9ae;}</style></defs><g transform="translate(-100.153)"><path class="a" d="M134.368,59.864h-.333v-14.2a16.323,16.323,0,0,0-9.359-14.736,16.323,16.323,0,0,0,9.359-14.736V2h.333a1,1,0,1,0,0-2H101.151a1,1,0,1,0,0,2h.333v14.2a16.323,16.323,0,0,0,9.359,14.736,16.323,16.323,0,0,0-9.359,14.736v14.2h-.333a1,1,0,1,0,0,2h33.217a1,1,0,0,0,0-2Zm-30.889-14.2a14.31,14.31,0,0,1,10.5-13.774,1,1,0,0,0,0-1.925,14.31,14.31,0,0,1-10.5-13.774V2H132.04v14.2a14.31,14.31,0,0,1-10.5,13.774,1,1,0,0,0,0,1.925,14.31,14.31,0,0,1,10.5,13.774v14.2H103.479Z"/><path class="a" d="M155.691,307.97a1,1,0,0,0-.527,1.925,10.309,10.309,0,0,1,7.564,9.925v3.023H142.148v-3.023a10.309,10.309,0,0,1,7.564-9.925,1,1,0,0,0-.527-1.925,12.309,12.309,0,0,0-9.032,11.85v4.021a1,1,0,0,0,1,1h22.575a1,1,0,0,0,1-1v-4.021A12.31,12.31,0,0,0,155.691,307.97Z" transform="translate(-34.679 -266.969)"/><path class="a" d="M154.673,156.757a1,1,0,0,0,2,0v-7.651a12.664,12.664,0,0,0,2.243-.41,12.222,12.222,0,0,0,8.5-8.243,1,1,0,0,0-.954-1.289h-8.929a1,1,0,1,0,0,2h7.483a10.175,10.175,0,0,1-6.608,5.607,9.881,9.881,0,0,1-5.475,0,10.174,10.174,0,0,1-6.608-5.607h7.483a1,1,0,0,0,0-2h-8.929a1,1,0,0,0-.954,1.289,12.222,12.222,0,0,0,8.5,8.244,12.667,12.667,0,0,0,2.243.41v7.651Z" transform="translate(-37.911 -120.65)"/><path class="a" d="M226,293.917a1,1,0,0,0-1,1v.322a1,1,0,0,0,2,0v-.322A1,1,0,0,0,226,293.917Z" transform="translate(-108.238 -254.817)"/></g></svg>