<svg xmlns="http://www.w3.org/2000/svg" viewBox="0 0 98.43 28.51"><defs><style>.cls-1{fill:#fff;}.cls-2{fill:#00c9ae;}</style></defs><g id="Calque_2" data-name="Calque 2"><g id="Calque_1-2" data-name="Calque 1"><path class="cls-1" d="M31.73,28V8.7h4V28Z"/><path class="cls-1" d="M57.35,11a10,10,0,0,1,2.84,7.31,10,10,0,0,1-2.82,7.32,9.14,9.14,0,0,1-6.74,2.85,9.22,9.22,0,0,1-7-2.75V28h-4V0h4V10.92A9.75,9.75,0,0,1,57.35,11Zm-2.87,12.1a6.51,6.51,0,0,0,1.78-4.79,6.51,6.51,0,0,0-1.78-4.8A6.08,6.08,0,0,0,50,11.73a6.18,6.18,0,0,0-4.43,1.85,6.32,6.32,0,0,0-1.9,4.76,6.34,6.34,0,0,0,1.9,4.76A6.17,6.17,0,0,0,50,24.94,6.08,6.08,0,0,0,54.48,23.13Z"/><path class="cls-2" d="M78.71,11.09a9.52,9.52,0,0,1,3,7.25,9.58,9.58,0,0,1-3,7.26A10.89,10.89,0,0,1,64,25.6a9.52,9.52,0,0,1-3-7.26,9.47,9.47,0,0,1,3-7.25,10.37,10.37,0,0,1,7.36-2.82A10.23,10.23,0,0,1,78.71,11.09Zm-2.85,12a6.34,6.34,0,0,0,1.9-4.76,6.32,6.32,0,0,0-1.9-4.76,6.39,6.39,0,0,0-9,0A6.35,6.35,0,0,0,65,18.34a6.37,6.37,0,0,0,1.89,4.76,6.41,6.41,0,0,0,9,0Z"/><path class="cls-2" d="M95.46,11.09a9.54,9.54,0,0,1,3,7.25,9.58,9.58,0,0,1-3,7.26,10.22,10.22,0,0,1-7.3,2.84,10.37,10.37,0,0,1-7.37-2.84,9.56,9.56,0,0,1-3-7.26,9.5,9.5,0,0,1,3-7.25,10.4,10.4,0,0,1,7.37-2.82A10.23,10.23,0,0,1,95.46,11.09Zm-2.86,12a6.34,6.34,0,0,0,1.91-4.76,6.33,6.33,0,0,0-1.91-4.76,6.39,6.39,0,0,0-9,0,6.34,6.34,0,0,0-1.88,4.76,6.36,6.36,0,0,0,1.88,4.76,6.41,6.41,0,0,0,9,0Z"/><path class="cls-1" d="M68.75,17.33A1.18,1.18,0,0,1,70.3,19a1.16,1.16,0,0,1-1.56.29,2.74,2.74,0,0,0,1,1.27,2.81,2.81,0,1,0-.6-3.92A2.38,2.38,0,0,0,68.75,17.33Z"/><path class="cls-1" d="M85.51,17.36a1.17,1.17,0,1,1,0,2,2.8,2.8,0,1,0,.35-2.65A2.38,2.38,0,0,0,85.51,17.36Z"/><path class="cls-2" d="M35.6,1.13a2.41,2.41,0,0,1,.73,1.78,2.39,2.39,0,0,1-.72,1.79,2.5,2.5,0,0,1-1.84.7,2.62,2.62,0,0,1-1.87-.7,2.36,2.36,0,0,1-.73-1.79,2.41,2.41,0,0,1,.73-1.78A2.52,2.52,0,0,1,33.77.39,2.48,2.48,0,0,1,35.6,1.13Z"/><polygon class="cls-2" points="83.15 23.91 79.75 28.44 76.32 23.88 83.15 23.91"/><path class="cls-1" d="M6.64,5.92a7.4,7.4,0,0,1,5.85,2.82,7.35,7.35,0,0,1,.88,1.51A7.43,7.43,0,0,1,26,8.74a6.63,6.63,0,0,1,.55.83A13.68,13.68,0,0,0,.55,9.11,7.37,7.37,0,0,1,6.64,5.92Z"/><path class="cls-2" d="M22.74,14a1.2,1.2,0,0,1-1.3,0,1.17,1.17,0,0,1,1.26-2,2.8,2.8,0,1,0-4.19,3.37,2.8,2.8,0,0,0,3.9-.7A2.55,2.55,0,0,0,22.74,14Z"/><path class="cls-2" d="M9.26,14A1.21,1.21,0,0,1,8,14a1.19,1.19,0,0,1-.28-1.65A1.17,1.17,0,0,1,9.25,12a2.72,2.72,0,0,0-1-1.27,2.81,2.81,0,1,0,.67,3.91A2.43,2.43,0,0,0,9.26,14Z"/><path class="cls-1" d="M26.71,16a7.36,7.36,0,0,1-6.65,4.11,7.44,7.44,0,0,1-4.89-1.83L13.5,21.2a.23.23,0,0,1-.4,0l-1.64-2.84a7.42,7.42,0,0,1-4.83,1.77A7.31,7.31,0,0,1,0,16a13.51,13.51,0,0,0,1.78,4.7l.16.26a2,2,0,0,1,.23,1L.77,26.68a1,1,0,0,0,0,.22.64.64,0,0,0,.61.66.87.87,0,0,0,.31-.07L6.14,26a1.89,1.89,0,0,1,.79-.15,2,2,0,0,1,.73.16c.23.09,1.1.45,2,.72a15.88,15.88,0,0,0,3.69.72A13.52,13.52,0,0,0,27,15.4C26.89,15.61,26.8,15.82,26.71,16Z"/></g></g></svg>