<svg xmlns="http://www.w3.org/2000/svg" width="410.896" height="304.674" viewBox="0 0 410.896 304.674">
  <g id="Groupe_224" data-name="Groupe 224" transform="translate(-705.087 -248.338)">
    <path id="Tracé_252" data-name="Tracé 252" d="M7783.381,3194.978s-255.531,117.276-103.653,170.1,282.625,5.282,278.663-71.317S7710.1,3243.579,7550.3,3464.132" transform="translate(-6844 -2912)" fill="none" stroke="#00c9ae" stroke-width="3" stroke-dasharray="10" opacity="0.3"/>
    <g id="send" transform="translate(951.176 215.841) rotate(14)">
      <path id="Tracé_328" data-name="Tracé 328" d="M44.517,35.074a1.306,1.306,0,0,0-1.741-1.494L.841,49.588a1.305,1.305,0,0,0,0,2.437l11.781,4.55V70.905a1.305,1.305,0,0,0,2.471.587l4.872-9.669,11.89,8.824a1.306,1.306,0,0,0,2.026-.667C44.977,33.582,44.5,35.165,44.517,35.074ZM34.165,39.66,13.737,54.209l-8.79-3.395ZM15.227,56.352,33.034,43.671c-15.323,16.164-14.522,15.314-14.589,15.4-.1.134.173-.387-3.218,6.341Zm16.692,11.1L21.453,59.682,40.377,39.718Z" transform="translate(0 0)" fill="#062944"/>
    </g>
  </g>
</svg>
