<svg xmlns="http://www.w3.org/2000/svg" width="649.101" height="663.39" viewBox="0 0 649.101 663.39">
  <g id="Groupe_52" data-name="Groupe 52" transform="translate(-0.01 0.004)">
    <g id="Groupe_51" data-name="Groupe 51" transform="translate(13.006 -0.004)">
      <path id="Tracé_113" data-name="Tracé 113" d="M147.121,142.565c57.521,0,108.545,26.715,140.8,67.87,8.664,11.071,15.4,23.346,21.179,36.342,26.715-61.132,89.291-104.212,162.215-104.212,57.521,0,108.544,26.715,140.8,67.87a191.472,191.472,0,0,1,13.237,19.976C584.188,99.966,463.609,3.7,318.723.086,172.392-3.284,46.278,88.895.55,219.341A177.389,177.389,0,0,1,147.121,142.565Z" transform="translate(-0.55 0.004)" fill="#f7f8f9"/>
    </g>
    <path id="Tracé_116" data-name="Tracé 116" d="M642.613,30.322C614.695,88.806,553.563,129.24,482.8,129.24a177.942,177.942,0,0,1-117.69-44.284l-40.193,69.8a5.632,5.632,0,0,1-9.627,0L275.824,86.64a178.68,178.68,0,0,1-116.246,42.6C88.819,129.24,27.928,88.325.01,29.841A323.342,323.342,0,0,0,42.85,142.958c1.2,1.925,2.647,4.091,3.851,6.258a50.786,50.786,0,0,1,5.776,24.068l-33.695,113.6a26.149,26.149,0,0,0-.963,5.295,14.646,14.646,0,0,0,14.2,15.885c2.888,0,7.461-1.685,7.461-1.685l108.063-36.823a46.419,46.419,0,0,1,19.254-3.369,49.016,49.016,0,0,1,17.569,3.851c5.536,2.407,26.474,10.83,47.654,17.329s59.928,16.607,88.809,17.088C490.747,308.543,628.172,180.022,649.111,15.4,646.945,20.454,644.779,25.508,642.613,30.322Z" transform="translate(0 355.326)" fill="#f7f8f9"/>
    <g id="Groupe_225" data-name="Groupe 225" transform="translate(80.045 237.642)">
      <rect id="Rectangle_164" data-name="Rectangle 164" width="174.375" height="43.381" transform="translate(30.675 0) rotate(45)" fill="#f7f8f9"/>
      <rect id="Rectangle_165" data-name="Rectangle 165" width="174.375" height="43.381" transform="translate(153.977 30.675) rotate(135)" fill="#f7f8f9"/>
    </g>
    <g id="Groupe_226" data-name="Groupe 226" transform="translate(404.128 237.642)">
      <rect id="Rectangle_164-2" data-name="Rectangle 164" width="174.375" height="43.381" transform="translate(30.675 0) rotate(45)" fill="#f7f8f9"/>
      <rect id="Rectangle_165-2" data-name="Rectangle 165" width="174.375" height="43.381" transform="translate(153.977 30.675) rotate(135)" fill="#f7f8f9"/>
    </g>
  </g>
</svg>
