<svg id="Composant_35_1" data-name="Composant 35 – 1" xmlns="http://www.w3.org/2000/svg" width="21.241" height="23.62" viewBox="0 0 21.241 23.62">
  <path id="Tracé_185" data-name="Tracé 185" d="M84.356,35.54h-5.31V34.2A2.211,2.211,0,0,0,76.84,32H72.4a2.211,2.211,0,0,0-2.2,2.213V35.54h-5.31a.885.885,0,0,0,0,1.77h.942l1.051,15.707a2.669,2.669,0,0,0,2.654,2.6H79.71a2.652,2.652,0,0,0,2.653-2.6L83.414,37.31h.942a.885.885,0,1,0,0-1.77ZM71.965,34.21a.439.439,0,0,1,.435-.44h4.437a.439.439,0,0,1,.439.435V35.54h-5.31Zm8.631,18.7a.9.9,0,0,1-.887.939H69.532a.893.893,0,0,1-.886-.93s0-.009,0-.014L67.6,37.31H81.64Z" transform="translate(-64 -32)" fill="#062944"/>
  <path id="Tracé_186" data-name="Tracé 186" d="M240.885,160a.885.885,0,0,0-.885.885v11.229a.885.885,0,1,0,1.77,0V160.885A.885.885,0,0,0,240.885,160Z" transform="translate(-230.264 -152.92)" fill="#062944"/>
  <path id="Tracé_187" data-name="Tracé 187" d="M168.85,160a.885.885,0,0,0-.85.919l.443,11.229a.885.885,0,0,0,.884.85h.035a.885.885,0,0,0,.85-.919l-.443-11.229A.885.885,0,0,0,168.85,160Z" transform="translate(-162.247 -152.919)" fill="#062944"/>
  <path id="Tracé_188" data-name="Tracé 188" d="M304.444,160.85,304,172.079a.885.885,0,0,0,.849.919h.035a.885.885,0,0,0,.884-.85l.443-11.229a.885.885,0,1,0-1.769-.07Z" transform="translate(-290.725 -152.92)" fill="#062944"/>
</svg>
