<svg xmlns="http://www.w3.org/2000/svg" width="88" height="88" viewBox="0 0 88 88">
  <g id="Groupe_196" data-name="Groupe 196" transform="translate(-916 -1219)">
    <g id="Ellipse_18" data-name="Ellipse 18" transform="translate(935 1236)" fill="#fff" stroke="#707070" stroke-width="1">
      <ellipse cx="29" cy="28.5" rx="29" ry="28.5" stroke="none"/>
      <ellipse cx="29" cy="28.5" rx="28.5" ry="28" fill="none"/>
    </g>
    <g id="play-button" transform="translate(916 1219)">
      <g id="Groupe_64" data-name="Groupe 64">
        <path id="Tracé_137" data-name="Tracé 137" d="M44,0A44,44,0,1,0,88,44,44.049,44.049,0,0,0,44,0ZM61.492,45.542l-25.667,16.5A1.833,1.833,0,0,1,33,60.5v-33a1.833,1.833,0,0,1,2.825-1.542l25.667,16.5a1.833,1.833,0,0,1,0,3.083Z" fill="#00c9ae"/>
      </g>
    </g>
  </g>
</svg>
