<svg xmlns="http://www.w3.org/2000/svg" width="49.428" height="63.476" viewBox="0 0 49.428 63.476"><defs><style>.a{fill:#00c9ae;}</style></defs><g transform="translate(-0.055 0)"><path class="a" d="M48.854,12.852,25,.14a1.185,1.185,0,0,0-1.129.007L.671,12.859A1.188,1.188,0,0,0,.055,13.9V30.506A34.383,34.383,0,0,0,20.663,61.973l3.22,1.4a1.186,1.186,0,0,0,.945,0l3.628-1.567A34.315,34.315,0,0,0,49.483,30.176V13.9a1.188,1.188,0,0,0-.629-1.049ZM47.108,30.176A31.945,31.945,0,0,1,27.526,59.626l-.008,0-3.159,1.364-2.745-1.2A32,32,0,0,1,2.43,30.506V14.6L24.447,2.537,47.108,14.612Zm0,0" transform="translate(0 0)"/><path class="a" d="M81.933,151a1.188,1.188,0,0,0-1.807,1.542l6.274,7.347a1.187,1.187,0,0,0,1.652.15l14.612-11.888a1.188,1.188,0,0,0-1.5-1.843L87.453,157.46Zm0,0" transform="translate(-66.249 -121.26)"/></g></svg>