<svg xmlns="http://www.w3.org/2000/svg" width="17.848" height="17.104" viewBox="0 0 17.848 17.104"><defs><style>.a{fill:#fff;}</style></defs><path class="a" d="M4,17.6a.95.95,0,0,1-.924-1.16l1.148-5.058L.325,7.963A.949.949,0,0,1,.863,6.3l5.152-.468L8.052,1.069a.949.949,0,0,1,1.745,0l2.037,4.768,5.151.468a.95.95,0,0,1,.539,1.66L13.63,11.378l1.148,5.058a.948.948,0,0,1-1.411,1.025L8.924,14.805,4.482,17.462A.951.951,0,0,1,4,17.6Zm4.929-3.935a.951.951,0,0,1,.486.135L13.6,16.3,12.52,11.53a.949.949,0,0,1,.3-.924L16.5,7.381l-4.864-.442a.948.948,0,0,1-.788-.575l-1.92-4.5L7,6.365a.945.945,0,0,1-.786.573L1.351,7.38,5.027,10.6a.947.947,0,0,1,.3.925L4.245,16.3,8.438,13.8a.951.951,0,0,1,.486-.135ZM5.976,5.928h0Zm5.9,0h0Zm0,0" transform="translate(-0.001 -0.492)"/></svg>