<svg xmlns="http://www.w3.org/2000/svg" width="61.86" height="61.86" viewBox="0 0 61.86 61.86"><defs><style>.a{fill:#00c9ae;}</style></defs><path class="a" d="M52.8,9.059A30.93,30.93,0,0,0,9.059,52.8,30.93,30.93,0,0,0,52.8,9.059ZM30.93,59.821A28.891,28.891,0,1,1,59.821,30.93,28.924,28.924,0,0,1,30.93,59.821Z"/><path class="a" d="M91.951,65.011a41.542,41.542,0,0,0-8.876-2.735c.162-1.778.246-3.593.246-5.425s-.084-3.648-.246-5.425a41.535,41.535,0,0,0,8.876-2.735,1.02,1.02,0,0,0-.848-1.855,39.257,39.257,0,0,1-8.253,2.541,50.105,50.105,0,0,0-2.123-9.5A30.912,30.912,0,0,0,84.37,37.81a1.02,1.02,0,1,0-1.124-1.7,28.888,28.888,0,0,1-3.22,1.842,29.264,29.264,0,0,0-3.136-6,1.02,1.02,0,1,0-1.673,1.166,27.387,27.387,0,0,1,2.95,5.665,28.785,28.785,0,0,1-9.8,2.079V31.02a1.02,1.02,0,1,0-2.039,0v9.839a28.785,28.785,0,0,1-9.8-2.079,27.391,27.391,0,0,1,2.95-5.665A1.02,1.02,0,1,0,57.8,31.948a29.267,29.267,0,0,0-3.136,6,28.845,28.845,0,0,1-3.22-1.842,1.02,1.02,0,0,0-1.124,1.7,30.9,30.9,0,0,0,3.643,2.066,50.108,50.108,0,0,0-2.123,9.5,39.257,39.257,0,0,1-8.253-2.541,1.02,1.02,0,0,0-.848,1.855,41.543,41.543,0,0,0,8.876,2.735c-.163,1.778-.247,3.593-.247,5.425s.084,3.648.246,5.425a41.535,41.535,0,0,0-8.876,2.735,1.02,1.02,0,1,0,.848,1.855,39.257,39.257,0,0,1,8.253-2.541,50.106,50.106,0,0,0,2.123,9.5,30.926,30.926,0,0,0-3.643,2.066,1.02,1.02,0,0,0,1.124,1.7,28.888,28.888,0,0,1,3.22-1.842,29.261,29.261,0,0,0,3.136,6,1.02,1.02,0,1,0,1.673-1.166,27.39,27.39,0,0,1-2.95-5.665,28.785,28.785,0,0,1,9.8-2.079v9.839a1.02,1.02,0,0,0,2.039,0V72.845a28.784,28.784,0,0,1,9.8,2.079,27.391,27.391,0,0,1-2.95,5.665,1.02,1.02,0,1,0,1.673,1.166,29.271,29.271,0,0,0,3.136-6,28.846,28.846,0,0,1,3.22,1.842,1.02,1.02,0,1,0,1.124-1.7,30.926,30.926,0,0,0-3.643-2.066,50.107,50.107,0,0,0,2.123-9.5A39.256,39.256,0,0,1,91.1,66.866a1.02,1.02,0,0,0,.848-1.855Zm-10.669-8.16c0,1.707-.076,3.4-.22,5.05a82.163,82.163,0,0,0-12.7-1.079V52.88a82.178,82.178,0,0,0,12.7-1.079C81.206,53.455,81.282,55.144,81.282,56.852ZM78.858,40.7a48.1,48.1,0,0,1,1.987,9.055A80.294,80.294,0,0,1,68.366,50.84V42.9A30.819,30.819,0,0,0,78.858,40.7Zm-23.023,0a30.825,30.825,0,0,0,10.492,2.2V50.84a80.293,80.293,0,0,1-12.479-1.085A48.12,48.12,0,0,1,55.835,40.7ZM53.411,56.852c0-1.707.076-3.4.22-5.05a82.162,82.162,0,0,0,12.7,1.079v7.943a82.179,82.179,0,0,0-12.7,1.079C53.486,60.248,53.411,58.559,53.411,56.852ZM55.835,73a48.111,48.111,0,0,1-1.987-9.055,80.294,80.294,0,0,1,12.479-1.085V70.8A30.817,30.817,0,0,0,55.835,73Zm23.022,0a30.825,30.825,0,0,0-10.492-2.2V62.863a80.293,80.293,0,0,1,12.479,1.085A48.11,48.11,0,0,1,78.858,73Z" transform="translate(-36.416 -25.921)"/></svg>